<svg width="1440" height="455" viewBox="0 0 1440 455" fill="none" xmlns="http://www.w3.org/2000/svg">
<rect y="79" width="1440" height="376" fill="#040404"/>
<path d="M950.452 36C950.239 36 950.106 35.8933 950.052 35.68L949.092 30.64C949.092 30.56 949.052 30.52 948.972 30.52H937.372C937.292 30.52 937.239 30.56 937.212 30.64L935.012 35.68C934.932 35.8933 934.772 36 934.532 36H932.412C932.119 36 932.039 35.8533 932.172 35.56L944.092 8.32C944.119 8.21333 944.186 8.13333 944.292 8.08C944.399 8.02667 944.492 8 944.572 8H947.212C947.319 8 947.412 8.02667 947.492 8.08C947.572 8.13333 947.626 8.21333 947.652 8.32L952.932 35.56V35.64C952.932 35.88 952.812 36 952.572 36H950.452ZM938.292 28C938.266 28.0533 938.266 28.1067 938.292 28.16C938.319 28.1867 938.359 28.2 938.412 28.2H948.452C948.506 28.2 948.546 28.1733 948.572 28.12C948.626 28.0667 948.639 28.0267 948.612 28L945.572 11.68C945.546 11.6267 945.506 11.6 945.452 11.6C945.426 11.6 945.386 11.6267 945.332 11.68L938.292 28ZM977.487 8.4C977.54 8.13333 977.687 8 977.927 8H979.887C980.02 8 980.114 8.04 980.167 8.12C980.247 8.2 980.274 8.29333 980.247 8.4L976.887 35.6C976.887 35.7067 976.847 35.8 976.767 35.88C976.687 35.96 976.58 36 976.447 36H974.527C974.367 36 974.22 35.9067 974.087 35.72L963.607 13.52C963.58 13.44 963.54 13.4133 963.487 13.44C963.434 13.44 963.407 13.48 963.407 13.56L960.727 35.6C960.674 35.8667 960.527 36 960.287 36H958.287C958.18 36 958.087 35.96 958.007 35.88C957.954 35.8 957.94 35.7067 957.967 35.6L961.327 8.4C961.327 8.29333 961.367 8.2 961.447 8.12C961.527 8.04 961.62 8 961.727 8H963.687C963.847 8 963.994 8.09333 964.127 8.28L974.607 30.48C974.634 30.56 974.674 30.6 974.727 30.6C974.78 30.5733 974.807 30.52 974.807 30.44L977.487 8.4ZM1000.27 36.32C997.764 36.32 995.777 35.6133 994.31 34.2C992.844 32.7867 992.11 30.88 992.11 28.48C992.11 27.84 992.137 27.36 992.19 27.04L993.43 16.96C993.644 15.12 994.217 13.5067 995.15 12.12C996.11 10.7067 997.337 9.61333 998.83 8.84C1000.32 8.06667 1001.98 7.68 1003.79 7.68C1006.32 7.68 1008.32 8.38667 1009.79 9.8C1011.28 11.2133 1012.03 13.12 1012.03 15.52C1012.03 16.16 1012 16.64 1011.95 16.96L1010.71 27.04C1010.47 28.88 1009.87 30.5067 1008.91 31.92C1007.98 33.3067 1006.76 34.3867 1005.27 35.16C1003.78 35.9333 1002.11 36.32 1000.27 36.32ZM1000.59 33.88C1002.56 33.88 1004.22 33.2667 1005.55 32.04C1006.88 30.8133 1007.67 29.1867 1007.91 27.16L1009.19 16.92C1009.24 16.44 1009.27 16.0933 1009.27 15.88C1009.27 14.12 1008.75 12.7333 1007.71 11.72C1006.7 10.68 1005.3 10.16 1003.51 10.16C1001.56 10.16 999.91 10.7867 998.55 12.04C997.217 13.2667 996.43 14.8933 996.19 16.92L994.91 27.16C994.857 27.64 994.83 27.9867 994.83 28.2C994.83 29.9333 995.35 31.32 996.39 32.36C997.43 33.3733 998.83 33.88 1000.59 33.88ZM1035.61 8.4C1035.67 8.13333 1035.81 8 1036.05 8H1038.01C1038.15 8 1038.24 8.04 1038.29 8.12C1038.37 8.2 1038.4 8.29333 1038.37 8.4L1035.01 35.6C1035.01 35.7067 1034.97 35.8 1034.89 35.88C1034.81 35.96 1034.71 36 1034.57 36H1032.65C1032.49 36 1032.35 35.9067 1032.21 35.72L1021.73 13.52C1021.71 13.44 1021.67 13.4133 1021.61 13.44C1021.56 13.44 1021.53 13.48 1021.53 13.56L1018.85 35.6C1018.8 35.8667 1018.65 36 1018.41 36H1016.41C1016.31 36 1016.21 35.96 1016.13 35.88C1016.08 35.8 1016.07 35.7067 1016.09 35.6L1019.45 8.4C1019.45 8.29333 1019.49 8.2 1019.57 8.12C1019.65 8.04 1019.75 8 1019.85 8H1021.81C1021.97 8 1022.12 8.09333 1022.25 8.28L1032.73 30.48C1032.76 30.56 1032.8 30.6 1032.85 30.6C1032.91 30.5733 1032.93 30.52 1032.93 30.44L1035.61 8.4ZM1042.66 36C1042.56 36 1042.46 35.96 1042.38 35.88C1042.33 35.8 1042.32 35.7067 1042.34 35.6L1045.7 8.4C1045.7 8.29333 1045.74 8.2 1045.82 8.12C1045.9 8.04 1046 8 1046.1 8H1048.1C1048.37 8 1048.48 8.13333 1048.42 8.4L1045.38 33.36C1045.38 33.4667 1045.42 33.52 1045.5 33.52H1059.22C1059.33 33.52 1059.41 33.56 1059.46 33.64C1059.54 33.72 1059.57 33.8133 1059.54 33.92L1059.34 35.6C1059.29 35.8667 1059.14 36 1058.9 36H1042.66ZM1064.69 36C1064.59 36 1064.49 35.96 1064.41 35.88C1064.36 35.8 1064.35 35.7067 1064.37 35.6L1067.73 8.4C1067.73 8.29333 1067.77 8.2 1067.85 8.12C1067.93 8.04 1068.03 8 1068.13 8H1070.13C1070.4 8 1070.51 8.13333 1070.45 8.4L1067.13 35.6C1067.08 35.8667 1066.93 36 1066.69 36H1064.69ZM1093.93 8.4C1093.99 8.13333 1094.13 8 1094.37 8H1096.33C1096.47 8 1096.56 8.04 1096.61 8.12C1096.69 8.2 1096.72 8.29333 1096.69 8.4L1093.33 35.6C1093.33 35.7067 1093.29 35.8 1093.21 35.88C1093.13 35.96 1093.03 36 1092.89 36H1090.97C1090.81 36 1090.67 35.9067 1090.53 35.72L1080.05 13.52C1080.03 13.44 1079.99 13.4133 1079.93 13.44C1079.88 13.44 1079.85 13.48 1079.85 13.56L1077.17 35.6C1077.12 35.8667 1076.97 36 1076.73 36H1074.73C1074.63 36 1074.53 35.96 1074.45 35.88C1074.4 35.8 1074.39 35.7067 1074.41 35.6L1077.77 8.4C1077.77 8.29333 1077.81 8.2 1077.89 8.12C1077.97 8.04 1078.07 8 1078.17 8H1080.13C1080.29 8 1080.44 8.09333 1080.57 8.28L1091.05 30.48C1091.08 30.56 1091.12 30.6 1091.17 30.6C1091.23 30.5733 1091.25 30.52 1091.25 30.44L1093.93 8.4ZM1120.84 10.08C1120.78 10.3467 1120.64 10.48 1120.4 10.48H1106.12C1106.04 10.48 1105.97 10.5333 1105.92 10.64L1104.72 20.52C1104.72 20.6267 1104.77 20.68 1104.88 20.68H1114.88C1115.14 20.68 1115.25 20.8133 1115.2 21.08L1115 22.76C1114.94 23.0267 1114.8 23.16 1114.56 23.16H1104.56C1104.45 23.16 1104.4 23.2133 1104.4 23.32L1103.16 33.36C1103.16 33.4667 1103.2 33.52 1103.28 33.52H1117.56C1117.8 33.52 1117.92 33.6533 1117.92 33.92L1117.68 35.6C1117.68 35.7067 1117.64 35.8 1117.56 35.88C1117.48 35.96 1117.37 36 1117.24 36H1100.44C1100.33 36 1100.24 35.96 1100.16 35.88C1100.1 35.8 1100.09 35.7067 1100.12 35.6L1103.48 8.4C1103.48 8.29333 1103.52 8.2 1103.6 8.12C1103.68 8.04 1103.77 8 1103.88 8H1120.68C1120.81 8 1120.9 8.04 1120.96 8.12C1121.04 8.2 1121.06 8.29333 1121.04 8.4L1120.84 10.08ZM1152.09 10.08C1152.03 10.3467 1151.89 10.48 1151.65 10.48H1137.37C1137.29 10.48 1137.22 10.5333 1137.17 10.64L1135.97 20.52C1135.97 20.6267 1136.02 20.68 1136.13 20.68H1146.13C1146.39 20.68 1146.5 20.8133 1146.45 21.08L1146.25 22.76C1146.19 23.0267 1146.05 23.16 1145.81 23.16H1135.81C1135.7 23.16 1135.65 23.2133 1135.65 23.32L1134.41 33.36C1134.41 33.4667 1134.45 33.52 1134.53 33.52H1148.81C1149.05 33.52 1149.17 33.6533 1149.17 33.92L1148.93 35.6C1148.93 35.7067 1148.89 35.8 1148.81 35.88C1148.73 35.96 1148.62 36 1148.49 36H1131.69C1131.58 36 1131.49 35.96 1131.41 35.88C1131.35 35.8 1131.34 35.7067 1131.37 35.6L1134.73 8.4C1134.73 8.29333 1134.77 8.2 1134.85 8.12C1134.93 8.04 1135.02 8 1135.13 8H1151.93C1152.06 8 1152.15 8.04 1152.21 8.12C1152.29 8.2 1152.31 8.29333 1152.29 8.4L1152.09 10.08ZM1152.92 36C1152.76 36 1152.67 35.96 1152.64 35.88C1152.62 35.7733 1152.66 35.6533 1152.76 35.52L1162.56 22.12C1162.62 22.04 1162.62 21.96 1162.56 21.88L1156.08 8.48C1156.06 8.42666 1156.04 8.34667 1156.04 8.24C1156.04 8.08 1156.15 8 1156.36 8H1158.52C1158.74 8 1158.88 8.09333 1158.96 8.28L1164.48 19.68C1164.51 19.7067 1164.55 19.72 1164.6 19.72C1164.66 19.72 1164.7 19.7067 1164.72 19.68L1172.96 8.28C1173.15 8.09333 1173.32 8 1173.48 8H1175.6C1175.92 8 1175.99 8.16 1175.8 8.48L1166.04 21.92C1165.96 22 1165.95 22.08 1166 22.16L1172.48 35.52C1172.51 35.5733 1172.52 35.64 1172.52 35.72C1172.52 35.9067 1172.4 36 1172.16 36H1170.04C1169.88 36 1169.74 35.9067 1169.6 35.72L1164.12 24.36C1164.12 24.3067 1164.1 24.28 1164.04 24.28C1163.99 24.28 1163.95 24.3067 1163.92 24.36L1155.6 35.72C1155.47 35.9067 1155.31 36 1155.12 36H1152.92ZM1185.38 36.36C1182.9 36.36 1180.93 35.68 1179.46 34.32C1178.02 32.96 1177.3 31.1333 1177.3 28.84C1177.3 28.2533 1177.33 27.8 1177.38 27.48L1178.7 16.48C1178.92 14.7467 1179.49 13.2133 1180.42 11.88C1181.36 10.5467 1182.56 9.52 1184.02 8.8C1185.49 8.05333 1187.12 7.68 1188.9 7.68C1191.41 7.68 1193.4 8.34667 1194.86 9.68C1196.33 11.0133 1197.06 12.8 1197.06 15.04C1197.06 15.3067 1197.04 15.7333 1196.98 16.32C1196.93 16.6133 1196.78 16.76 1196.54 16.76L1194.54 16.88C1194.3 16.88 1194.18 16.76 1194.18 16.52L1194.22 16.4C1194.25 16.1867 1194.26 15.88 1194.26 15.48C1194.26 13.8533 1193.76 12.56 1192.74 11.6C1191.76 10.64 1190.38 10.16 1188.62 10.16C1186.73 10.16 1185.12 10.7333 1183.78 11.88C1182.48 13.0267 1181.7 14.5333 1181.46 16.4L1180.1 27.6C1180.08 27.8133 1180.06 28.12 1180.06 28.52C1180.06 30.1467 1180.57 31.44 1181.58 32.4C1182.6 33.36 1183.97 33.84 1185.7 33.84C1187.62 33.84 1189.24 33.2667 1190.54 32.12C1191.85 30.9733 1192.61 29.4667 1192.82 27.6L1192.86 27.52C1192.86 27.28 1193 27.16 1193.26 27.16L1195.22 27.28C1195.52 27.28 1195.64 27.4 1195.58 27.64C1195.37 29.3733 1194.8 30.9067 1193.86 32.24C1192.96 33.5467 1191.77 34.56 1190.3 35.28C1188.84 36 1187.2 36.36 1185.38 36.36ZM1201.1 36C1200.99 36 1200.9 35.96 1200.82 35.88C1200.77 35.8 1200.75 35.7067 1200.78 35.6L1204.14 8.4C1204.14 8.29333 1204.18 8.2 1204.26 8.12C1204.34 8.04 1204.43 8 1204.54 8H1206.54C1206.81 8 1206.91 8.13333 1206.86 8.4L1203.82 33.36C1203.82 33.4667 1203.86 33.52 1203.94 33.52H1217.66C1217.77 33.52 1217.85 33.56 1217.9 33.64C1217.98 33.72 1218.01 33.8133 1217.98 33.92L1217.78 35.6C1217.73 35.8667 1217.58 36 1217.34 36H1201.1ZM1231.65 36.32C1229.14 36.32 1227.14 35.64 1225.65 34.28C1224.18 32.8933 1223.45 31.04 1223.45 28.72C1223.45 28.4533 1223.48 28 1223.53 27.36L1225.85 8.4C1225.85 8.29333 1225.89 8.2 1225.97 8.12C1226.05 8.04 1226.16 8 1226.29 8H1228.25C1228.49 8 1228.61 8.13333 1228.61 8.4L1226.25 27.44C1226.22 27.6533 1226.21 27.96 1226.21 28.36C1226.21 30.0133 1226.73 31.3467 1227.77 32.36C1228.81 33.3467 1230.21 33.84 1231.97 33.84C1233.89 33.84 1235.52 33.2533 1236.85 32.08C1238.18 30.9067 1238.97 29.36 1239.21 27.44L1241.57 8.4C1241.57 8.29333 1241.61 8.2 1241.69 8.12C1241.77 8.04 1241.88 8 1242.01 8H1243.97C1244.24 8 1244.34 8.13333 1244.29 8.4L1241.97 27.36C1241.76 29.1467 1241.18 30.72 1240.25 32.08C1239.32 33.4133 1238.1 34.4533 1236.61 35.2C1235.14 35.9467 1233.49 36.32 1231.65 36.32ZM1255.73 36.32C1253.03 36.32 1250.91 35.7467 1249.37 34.6C1247.85 33.4267 1247.09 31.84 1247.09 29.84C1247.09 29.6 1247.11 29.2667 1247.17 28.84L1247.33 27.6C1247.38 27.3333 1247.53 27.2 1247.77 27.2H1249.65C1249.89 27.2 1250.01 27.3333 1250.01 27.6L1249.85 28.68C1249.82 28.8133 1249.81 29.0133 1249.81 29.28C1249.81 30.64 1250.37 31.7467 1251.49 32.6C1252.63 33.4267 1254.22 33.84 1256.25 33.84C1258.22 33.84 1259.78 33.4133 1260.93 32.56C1262.07 31.68 1262.74 30.52 1262.93 29.08C1262.95 28.9467 1262.97 28.7333 1262.97 28.44C1262.97 27.32 1262.49 26.3733 1261.53 25.6C1260.59 24.8 1258.94 23.8533 1256.57 22.76C1254.86 22.04 1253.53 21.4133 1252.57 20.88C1251.61 20.32 1250.83 19.6267 1250.25 18.8C1249.66 17.9733 1249.37 16.96 1249.37 15.76C1249.37 15.5733 1249.39 15.24 1249.45 14.76C1249.71 12.52 1250.67 10.7867 1252.33 9.56C1254.01 8.30667 1256.17 7.68 1258.81 7.68C1261.45 7.68 1263.5 8.28 1264.97 9.48C1266.46 10.6533 1267.21 12.24 1267.21 14.24C1267.21 14.4533 1267.18 14.8 1267.13 15.28L1267.05 16.16C1266.99 16.4267 1266.85 16.56 1266.61 16.56H1264.65C1264.54 16.56 1264.45 16.52 1264.37 16.44C1264.31 16.36 1264.3 16.2667 1264.33 16.16L1264.41 15.44C1264.43 15.28 1264.45 15.0667 1264.45 14.8C1264.45 13.4133 1263.91 12.2933 1262.85 11.44C1261.81 10.5867 1260.31 10.16 1258.37 10.16C1256.55 10.16 1255.1 10.5467 1254.01 11.32C1252.94 12.0933 1252.31 13.2133 1252.13 14.68C1252.1 14.84 1252.09 15.0533 1252.09 15.32C1252.09 16.12 1252.3 16.8 1252.73 17.36C1253.18 17.92 1253.82 18.4267 1254.65 18.88C1255.47 19.3067 1256.7 19.8533 1258.33 20.52C1259.98 21.24 1261.31 21.92 1262.33 22.56C1263.34 23.2 1264.15 23.96 1264.77 24.84C1265.41 25.72 1265.73 26.7733 1265.73 28C1265.73 28.4267 1265.71 28.7467 1265.69 28.96C1265.42 31.2 1264.41 32.9867 1262.65 34.32C1260.89 35.6533 1258.58 36.32 1255.73 36.32ZM1270.98 36C1270.88 36 1270.78 35.96 1270.7 35.88C1270.65 35.8 1270.64 35.7067 1270.66 35.6L1274.02 8.4C1274.02 8.29333 1274.06 8.2 1274.14 8.12C1274.22 8.04 1274.32 8 1274.42 8H1276.42C1276.69 8 1276.8 8.13333 1276.74 8.4L1273.42 35.6C1273.37 35.8667 1273.22 36 1272.98 36H1270.98ZM1287.34 36C1287.23 36 1287.14 35.9733 1287.06 35.92C1286.98 35.8667 1286.93 35.7867 1286.9 35.68L1281.78 8.44V8.36C1281.78 8.12 1281.9 8 1282.14 8H1284.26C1284.34 8 1284.42 8.02667 1284.5 8.08C1284.58 8.13333 1284.63 8.21333 1284.66 8.32L1288.86 31.76C1288.86 31.8133 1288.89 31.84 1288.94 31.84C1289.02 31.84 1289.07 31.8133 1289.1 31.76L1299.02 8.32C1299.15 8.10666 1299.33 8 1299.54 8H1301.58C1301.85 8 1301.94 8.14667 1301.86 8.44L1289.98 35.68C1289.85 35.8933 1289.67 36 1289.46 36H1287.34ZM1323.73 10.08C1323.67 10.3467 1323.53 10.48 1323.29 10.48H1309.01C1308.93 10.48 1308.86 10.5333 1308.81 10.64L1307.61 20.52C1307.61 20.6267 1307.66 20.68 1307.77 20.68H1317.77C1318.03 20.68 1318.14 20.8133 1318.09 21.08L1317.89 22.76C1317.83 23.0267 1317.69 23.16 1317.45 23.16H1307.45C1307.34 23.16 1307.29 23.2133 1307.29 23.32L1306.05 33.36C1306.05 33.4667 1306.09 33.52 1306.17 33.52H1320.45C1320.69 33.52 1320.81 33.6533 1320.81 33.92L1320.57 35.6C1320.57 35.7067 1320.53 35.8 1320.45 35.88C1320.37 35.96 1320.26 36 1320.13 36H1303.33C1303.22 36 1303.13 35.96 1303.05 35.88C1302.99 35.8 1302.98 35.7067 1303.01 35.6L1306.37 8.4C1306.37 8.29333 1306.41 8.2 1306.49 8.12C1306.57 8.04 1306.66 8 1306.77 8H1323.57C1323.7 8 1323.79 8.04 1323.85 8.12C1323.93 8.2 1323.95 8.29333 1323.93 8.4L1323.73 10.08ZM1349.62 21.4C1349.48 21.48 1349.48 21.56 1349.62 21.64C1351.94 22.6267 1353.1 24.48 1353.1 27.2C1353.1 27.4133 1353.07 27.8133 1353.02 28.4C1352.72 30.8 1351.75 32.6667 1350.1 34C1348.44 35.3333 1346.4 36 1343.98 36H1334.58C1334.47 36 1334.38 35.96 1334.3 35.88C1334.24 35.8 1334.23 35.7067 1334.26 35.6L1337.62 8.4C1337.62 8.29333 1337.66 8.2 1337.74 8.12C1337.82 8.04 1337.91 8 1338.02 8H1347.14C1349.43 8 1351.22 8.53333 1352.5 9.6C1353.78 10.6667 1354.42 12.1867 1354.42 14.16C1354.42 15.9467 1353.99 17.4533 1353.14 18.68C1352.31 19.9067 1351.14 20.8133 1349.62 21.4ZM1340.26 10.48C1340.18 10.48 1340.11 10.5333 1340.06 10.64L1338.9 20.24C1338.9 20.3467 1338.94 20.4 1339.02 20.4H1345.62C1347.4 20.4 1348.84 19.8933 1349.94 18.88C1351.06 17.84 1351.62 16.48 1351.62 14.8C1351.62 13.4667 1351.19 12.4133 1350.34 11.64C1349.48 10.8667 1348.32 10.48 1346.86 10.48H1340.26ZM1344.3 33.48C1346.08 33.48 1347.54 32.92 1348.66 31.8C1349.78 30.6533 1350.34 29.16 1350.34 27.32C1350.34 25.9333 1349.9 24.84 1349.02 24.04C1348.16 23.2133 1346.98 22.8 1345.46 22.8H1338.74C1338.63 22.8 1338.58 22.8533 1338.58 22.96L1337.3 33.32C1337.3 33.4267 1337.34 33.48 1337.42 33.48H1344.3ZM1364.25 35.96C1363.98 35.96 1363.87 35.8267 1363.93 35.56L1365.37 23.72C1365.37 23.6133 1365.35 23.5467 1365.33 23.52L1359.13 8.48C1359.1 8.42666 1359.09 8.36 1359.09 8.28C1359.09 8.09333 1359.21 8 1359.45 8H1361.57C1361.81 8 1361.94 8.09333 1361.97 8.28L1367.01 20.48C1367.03 20.5067 1367.07 20.52 1367.13 20.52C1367.18 20.52 1367.22 20.5067 1367.25 20.48L1375.29 8.28C1375.31 8.2 1375.38 8.13333 1375.49 8.08C1375.59 8.02667 1375.7 8 1375.81 8H1377.89C1378.05 8 1378.14 8.05333 1378.17 8.16C1378.22 8.24 1378.19 8.34667 1378.09 8.48L1368.17 23.52C1368.14 23.5467 1368.13 23.6133 1368.13 23.72L1366.65 35.56C1366.65 35.6667 1366.61 35.76 1366.53 35.84C1366.45 35.92 1366.34 35.96 1366.21 35.96H1364.25Z" fill="black"/>
<path d="M991.587 234.48C991.561 234.587 991.507 234.68 991.427 234.76C991.347 234.84 991.254 234.88 991.147 234.88H976.467C976.361 234.88 976.307 234.933 976.307 235.04L974.947 245.84C974.947 245.947 975.001 246 975.107 246H985.507C985.774 246 985.881 246.133 985.827 246.4L985.707 247.48C985.654 247.747 985.507 247.88 985.267 247.88H974.867C974.761 247.88 974.707 247.933 974.707 248.04L973.147 260.6C973.094 260.867 972.947 261 972.707 261H971.427C971.161 261 971.054 260.867 971.107 260.6L974.427 233.4C974.481 233.133 974.627 233 974.867 233H991.347C991.481 233 991.574 233.04 991.627 233.12C991.707 233.2 991.734 233.293 991.707 233.4L991.587 234.48ZM1009.26 261C1009.04 261 1008.9 260.907 1008.82 260.72L1004.46 248C1004.43 247.92 1004.38 247.88 1004.3 247.88H996.977C996.87 247.88 996.817 247.933 996.817 248.04L995.257 260.6C995.203 260.867 995.057 261 994.817 261H993.537C993.27 261 993.163 260.867 993.217 260.6L996.537 233.4C996.59 233.133 996.737 233 996.977 233H1006.78C1008.72 233 1010.27 233.573 1011.42 234.72C1012.59 235.867 1013.18 237.4 1013.18 239.32C1013.18 241.507 1012.56 243.36 1011.34 244.88C1010.14 246.4 1008.56 247.347 1006.62 247.72C1006.48 247.773 1006.44 247.84 1006.5 247.92L1010.86 260.52L1010.9 260.68C1010.9 260.893 1010.78 261 1010.54 261H1009.26ZM998.577 234.88C998.47 234.88 998.417 234.933 998.417 235.04L997.057 245.96C997.057 246.067 997.11 246.12 997.217 246.12H1004.98C1006.12 246.12 1007.16 245.853 1008.1 245.32C1009.03 244.76 1009.76 243.987 1010.3 243C1010.83 242.013 1011.1 240.893 1011.1 239.64C1011.1 238.2 1010.67 237.053 1009.82 236.2C1008.96 235.32 1007.8 234.88 1006.34 234.88H998.577ZM1024.89 261.32C1022.43 261.32 1020.5 260.627 1019.09 259.24C1017.67 257.853 1016.97 256 1016.97 253.68C1016.97 253.04 1016.99 252.56 1017.05 252.24L1018.33 241.76C1018.54 239.973 1019.1 238.4 1020.01 237.04C1020.94 235.653 1022.13 234.587 1023.57 233.84C1025.01 233.067 1026.62 232.68 1028.41 232.68C1030.89 232.68 1032.83 233.373 1034.25 234.76C1035.69 236.147 1036.41 238 1036.41 240.32C1036.41 240.96 1036.38 241.44 1036.33 241.76L1035.05 252.24C1034.83 254.027 1034.26 255.613 1033.33 257C1032.42 258.36 1031.23 259.427 1029.77 260.2C1028.3 260.947 1026.67 261.32 1024.89 261.32ZM1025.13 259.48C1027.23 259.48 1028.99 258.827 1030.41 257.52C1031.85 256.213 1032.71 254.48 1033.01 252.32L1034.29 241.72C1034.34 241.187 1034.37 240.813 1034.37 240.6C1034.37 238.76 1033.81 237.293 1032.69 236.2C1031.59 235.107 1030.09 234.56 1028.17 234.56C1026.11 234.56 1024.37 235.227 1022.93 236.56C1021.51 237.867 1020.67 239.587 1020.41 241.72L1019.09 252.32C1019.03 252.853 1019.01 253.227 1019.01 253.44C1019.01 255.28 1019.55 256.747 1020.65 257.84C1021.74 258.933 1023.23 259.48 1025.13 259.48ZM1062.03 233.28C1062.16 233.093 1062.32 233 1062.51 233H1063.83C1063.96 233 1064.06 233.04 1064.11 233.12C1064.19 233.2 1064.22 233.293 1064.19 233.4L1060.83 260.6C1060.83 260.707 1060.79 260.8 1060.71 260.88C1060.63 260.96 1060.54 261 1060.43 261H1059.15C1059.02 261 1058.91 260.96 1058.83 260.88C1058.78 260.8 1058.76 260.707 1058.79 260.6L1061.67 237.12C1061.7 237.04 1061.68 237 1061.63 237C1061.58 236.973 1061.52 237 1061.47 237.08L1053.31 247.96C1053.18 248.147 1053.02 248.24 1052.83 248.24H1052.15C1051.99 248.24 1051.84 248.147 1051.71 247.96L1046.15 237.12C1046.12 237.04 1046.08 237.013 1046.03 237.04C1045.98 237.067 1045.95 237.12 1045.95 237.2L1043.07 260.6C1043.02 260.867 1042.87 261 1042.63 261H1041.35C1041.08 261 1040.98 260.867 1041.03 260.6L1044.35 233.4C1044.4 233.133 1044.55 233 1044.79 233H1046.15C1046.36 233 1046.51 233.093 1046.59 233.28L1052.71 245.28C1052.74 245.307 1052.78 245.32 1052.83 245.32C1052.88 245.32 1052.92 245.307 1052.95 245.28L1062.03 233.28ZM1095.7 233C1095.83 233 1095.92 233.04 1095.98 233.12C1096.06 233.2 1096.08 233.293 1096.06 233.4L1095.9 234.48C1095.9 234.587 1095.86 234.68 1095.78 234.76C1095.7 234.84 1095.6 234.88 1095.5 234.88H1087.74C1087.68 234.88 1087.63 234.893 1087.58 234.92C1087.55 234.947 1087.54 234.987 1087.54 235.04L1084.42 260.6C1084.36 260.867 1084.22 261 1083.98 261H1082.7C1082.46 261 1082.34 260.867 1082.34 260.6L1085.5 235.04C1085.5 234.933 1085.44 234.88 1085.34 234.88H1077.98C1077.71 234.88 1077.6 234.747 1077.66 234.48L1077.78 233.4C1077.83 233.133 1077.98 233 1078.22 233H1095.7ZM1117.53 233.4C1117.58 233.133 1117.73 233 1117.97 233H1119.25C1119.49 233 1119.61 233.133 1119.61 233.4L1116.25 260.6C1116.2 260.867 1116.05 261 1115.81 261H1114.53C1114.26 261 1114.16 260.867 1114.21 260.6L1115.73 248.04C1115.73 247.933 1115.69 247.88 1115.61 247.88H1102.25C1102.14 247.88 1102.09 247.933 1102.09 248.04L1100.53 260.6C1100.48 260.867 1100.33 261 1100.09 261H1098.81C1098.54 261 1098.44 260.867 1098.49 260.6L1101.81 233.4C1101.86 233.133 1102.01 233 1102.25 233H1103.53C1103.77 233 1103.89 233.133 1103.89 233.4L1102.33 245.84C1102.33 245.947 1102.38 246 1102.49 246H1115.85C1115.88 246 1115.9 245.987 1115.93 245.96C1115.98 245.933 1116.01 245.893 1116.01 245.84L1117.53 233.4ZM1144.64 234.48C1144.61 234.587 1144.56 234.68 1144.48 234.76C1144.4 234.84 1144.3 234.88 1144.2 234.88H1129.48C1129.37 234.88 1129.32 234.933 1129.32 235.04L1127.96 245.84C1127.96 245.947 1128.01 246 1128.12 246H1138.56C1138.82 246 1138.93 246.133 1138.88 246.4L1138.76 247.48C1138.7 247.747 1138.56 247.88 1138.32 247.88H1127.88C1127.77 247.88 1127.72 247.933 1127.72 248.04L1126.36 258.96C1126.36 259.067 1126.41 259.12 1126.52 259.12H1141.2C1141.44 259.12 1141.56 259.253 1141.56 259.52L1141.4 260.6C1141.4 260.707 1141.36 260.8 1141.28 260.88C1141.2 260.96 1141.09 261 1140.96 261H1124.44C1124.17 261 1124.06 260.867 1124.12 260.6L1127.44 233.4C1127.49 233.133 1127.64 233 1127.88 233H1144.39C1144.53 233 1144.62 233.04 1144.68 233.12C1144.76 233.2 1144.78 233.293 1144.76 233.4L1144.64 234.48ZM1155.88 261C1155.61 261 1155.51 260.867 1155.56 260.6L1158.88 233.4C1158.93 233.133 1159.08 233 1159.32 233H1168.32C1170.59 233 1172.36 233.573 1173.64 234.72C1174.92 235.84 1175.56 237.387 1175.56 239.36C1175.56 239.6 1175.53 239.987 1175.48 240.52L1173.88 253.48C1173.61 255.8 1172.67 257.64 1171.04 259C1169.41 260.333 1167.36 261 1164.88 261H1155.88ZM1157.8 258.96C1157.8 259.067 1157.85 259.12 1157.96 259.12H1165.24C1167.05 259.12 1168.55 258.6 1169.72 257.56C1170.89 256.493 1171.6 255.053 1171.84 253.24L1173.4 240.76C1173.45 240.333 1173.48 240.013 1173.48 239.8C1173.48 238.253 1173.01 237.053 1172.08 236.2C1171.15 235.32 1169.85 234.88 1168.2 234.88H1160.92C1160.81 234.88 1160.76 234.933 1160.76 235.04L1157.8 258.96ZM1194.48 261C1194.27 261 1194.14 260.893 1194.08 260.68L1193.04 255.36C1193.04 255.28 1193 255.24 1192.92 255.24H1180.8C1180.72 255.24 1180.67 255.28 1180.64 255.36L1178.36 260.68C1178.23 260.893 1178.06 261 1177.84 261H1176.48C1176.19 261 1176.11 260.853 1176.24 260.56L1188.2 233.32C1188.23 233.213 1188.3 233.133 1188.4 233.08C1188.51 233.027 1188.6 233 1188.68 233H1190.44C1190.66 233 1190.8 233.107 1190.88 233.32L1196.16 260.56V260.64C1196.16 260.88 1196.04 261 1195.8 261H1194.48ZM1181.52 253.28C1181.5 253.333 1181.5 253.387 1181.52 253.44C1181.55 253.467 1181.59 253.48 1181.64 253.48H1192.52C1192.58 253.48 1192.62 253.467 1192.64 253.44C1192.7 253.387 1192.71 253.333 1192.68 253.28L1189.36 235.88C1189.34 235.827 1189.3 235.8 1189.24 235.8C1189.19 235.8 1189.15 235.827 1189.12 235.88L1181.52 253.28ZM1201.97 261C1201.71 261 1201.6 260.867 1201.65 260.6L1204.97 233.4C1205.03 233.133 1205.17 233 1205.41 233H1206.69C1206.93 233 1207.05 233.133 1207.05 233.4L1203.69 260.6C1203.64 260.867 1203.49 261 1203.25 261H1201.97ZM1211.97 261C1211.71 261 1211.6 260.867 1211.65 260.6L1214.97 233.4C1215.03 233.133 1215.17 233 1215.41 233H1216.69C1216.93 233 1217.05 233.133 1217.05 233.4L1213.89 258.96C1213.89 259.067 1213.95 259.12 1214.05 259.12H1227.97C1228.24 259.12 1228.35 259.253 1228.29 259.52L1228.17 260.6C1228.12 260.867 1227.97 261 1227.73 261H1211.97ZM1239.26 261C1239.02 261 1238.9 260.867 1238.9 260.6L1240.42 248.28C1240.42 248.253 1240.42 248.227 1240.42 248.2C1240.45 248.147 1240.45 248.107 1240.42 248.08L1234.1 233.48C1234.07 233.427 1234.06 233.36 1234.06 233.28C1234.06 233.093 1234.18 233 1234.42 233H1235.74C1235.9 233 1236.05 233.093 1236.18 233.28L1241.62 245.84C1241.65 245.867 1241.69 245.88 1241.74 245.88C1241.79 245.88 1241.83 245.867 1241.86 245.84L1250.38 233.28C1250.51 233.093 1250.67 233 1250.86 233H1252.18C1252.34 233 1252.43 233.053 1252.46 233.16C1252.51 233.24 1252.5 233.347 1252.42 233.48L1242.5 248.08C1242.47 248.107 1242.46 248.173 1242.46 248.28L1240.94 260.6C1240.89 260.867 1240.74 261 1240.5 261H1239.26ZM1277.2 246.4C1277.14 246.427 1277.12 246.453 1277.12 246.48C1277.12 246.507 1277.14 246.533 1277.2 246.56C1278.37 247.093 1279.26 247.853 1279.88 248.84C1280.49 249.8 1280.8 250.947 1280.8 252.28C1280.8 252.52 1280.77 252.907 1280.72 253.44C1280.45 255.787 1279.5 257.64 1277.88 259C1276.28 260.333 1274.3 261 1271.96 261H1262.76C1262.49 261 1262.38 260.867 1262.44 260.6L1265.76 233.4C1265.81 233.133 1265.96 233 1266.2 233H1275.12C1277.3 233 1279.01 233.533 1280.24 234.6C1281.49 235.667 1282.12 237.16 1282.12 239.08C1282.12 240.867 1281.68 242.387 1280.8 243.64C1279.94 244.893 1278.74 245.813 1277.2 246.4ZM1267.8 234.88C1267.69 234.88 1267.64 234.933 1267.64 235.04L1266.32 245.52C1266.32 245.627 1266.37 245.68 1266.48 245.68H1273.56C1275.48 245.68 1277.04 245.12 1278.24 244C1279.44 242.853 1280.04 241.36 1280.04 239.52C1280.04 238.08 1279.58 236.947 1278.68 236.12C1277.77 235.293 1276.52 234.88 1274.92 234.88H1267.8ZM1272.2 259.08C1274.12 259.08 1275.68 258.467 1276.88 257.24C1278.1 256.013 1278.72 254.4 1278.72 252.4C1278.72 250.88 1278.25 249.68 1277.32 248.8C1276.38 247.92 1275.09 247.48 1273.44 247.48H1266.24C1266.13 247.48 1266.08 247.533 1266.08 247.64L1264.68 258.92C1264.68 259.027 1264.73 259.08 1264.84 259.08H1272.2ZM1302.89 261C1302.68 261 1302.53 260.907 1302.45 260.72L1298.09 248C1298.06 247.92 1298.01 247.88 1297.93 247.88H1290.61C1290.5 247.88 1290.45 247.933 1290.45 248.04L1288.89 260.6C1288.84 260.867 1288.69 261 1288.45 261H1287.17C1286.9 261 1286.8 260.867 1286.85 260.6L1290.17 233.4C1290.22 233.133 1290.37 233 1290.61 233H1300.41C1302.36 233 1303.9 233.573 1305.05 234.72C1306.22 235.867 1306.81 237.4 1306.81 239.32C1306.81 241.507 1306.2 243.36 1304.97 244.88C1303.77 246.4 1302.2 247.347 1300.25 247.72C1300.12 247.773 1300.08 247.84 1300.13 247.92L1304.49 260.52L1304.53 260.68C1304.53 260.893 1304.41 261 1304.17 261H1302.89ZM1292.21 234.88C1292.1 234.88 1292.05 234.933 1292.05 235.04L1290.69 245.96C1290.69 246.067 1290.74 246.12 1290.85 246.12H1298.61C1299.76 246.12 1300.8 245.853 1301.73 245.32C1302.66 244.76 1303.4 243.987 1303.93 243C1304.46 242.013 1304.73 240.893 1304.73 239.64C1304.73 238.2 1304.3 237.053 1303.45 236.2C1302.6 235.32 1301.44 234.88 1299.97 234.88H1292.21ZM1319.16 261.32C1316.71 261.32 1314.76 260.64 1313.32 259.28C1311.88 257.92 1311.16 256.107 1311.16 253.84C1311.16 253.547 1311.19 253.107 1311.24 252.52L1313.6 233.4C1313.6 233.293 1313.64 233.2 1313.72 233.12C1313.8 233.04 1313.89 233 1314 233H1315.28C1315.41 233 1315.51 233.04 1315.56 233.12C1315.64 233.2 1315.67 233.293 1315.64 233.4L1313.28 252.6C1313.23 253.08 1313.2 253.427 1313.2 253.64C1313.2 255.4 1313.76 256.813 1314.88 257.88C1316 258.92 1317.51 259.44 1319.4 259.44C1321.48 259.44 1323.23 258.813 1324.64 257.56C1326.08 256.307 1326.92 254.653 1327.16 252.6L1329.52 233.4C1329.57 233.133 1329.72 233 1329.96 233H1331.24C1331.48 233 1331.6 233.133 1331.6 233.4L1329.24 252.52C1329.03 254.253 1328.47 255.787 1327.56 257.12C1326.65 258.453 1325.47 259.493 1324 260.24C1322.56 260.96 1320.95 261.32 1319.16 261.32ZM1336.19 261C1335.93 261 1335.82 260.867 1335.87 260.6L1339.19 233.4C1339.25 233.133 1339.39 233 1339.63 233H1340.91C1341.15 233 1341.27 233.133 1341.27 233.4L1337.91 260.6C1337.86 260.867 1337.71 261 1337.47 261H1336.19ZM1365.59 233.4C1365.59 233.293 1365.63 233.2 1365.71 233.12C1365.79 233.04 1365.9 233 1366.03 233H1367.31C1367.42 233 1367.5 233.04 1367.55 233.12C1367.63 233.2 1367.66 233.293 1367.63 233.4L1364.31 260.6C1364.29 260.707 1364.23 260.8 1364.15 260.88C1364.07 260.96 1363.98 261 1363.87 261H1362.59C1362.41 261 1362.26 260.907 1362.15 260.72L1350.99 237.24C1350.97 237.16 1350.93 237.133 1350.87 237.16C1350.82 237.16 1350.79 237.2 1350.79 237.28L1347.91 260.6C1347.86 260.867 1347.71 261 1347.47 261H1346.19C1345.93 261 1345.82 260.867 1345.87 260.6L1349.19 233.4C1349.25 233.133 1349.39 233 1349.63 233H1350.95C1351.17 233 1351.31 233.093 1351.39 233.28L1362.51 256.76C1362.54 256.84 1362.58 256.88 1362.63 256.88C1362.69 256.853 1362.71 256.8 1362.71 256.72L1365.59 233.4Z" fill="white"/>
<path d="M872.686 66C884.819 66 894.419 69.4 901.486 76.2C908.686 83 912.286 92.2 912.286 103.8C912.286 105.133 912.153 107.4 911.886 110.6C910.819 119.267 907.953 126.933 903.286 133.6C898.619 140.267 892.553 145.4 885.086 149C877.753 152.6 869.486 154.4 860.286 154.4H836.686C836.153 154.4 835.753 154.733 835.486 155.4L829.686 203.6C829.553 204.267 829.219 204.867 828.686 205.4C828.286 205.8 827.753 206 827.086 206H799.486C798.819 206 798.286 205.8 797.886 205.4C797.486 204.867 797.353 204.267 797.486 203.6L814.086 68.4C814.219 67.7333 814.486 67.2 814.886 66.8C815.419 66.2667 816.019 66 816.686 66H872.686ZM859.886 128C865.753 128 870.553 126.2 874.286 122.6C878.019 119 879.886 114.333 879.886 108.6C879.886 104.333 878.419 100.933 875.486 98.4C872.686 95.7333 868.886 94.4 864.086 94.4H844.086C843.553 94.4 843.153 94.7333 842.886 95.4L839.086 127C838.819 127.667 839.086 128 839.886 128H859.886ZM986.502 206C985.168 206 984.302 205.4 983.902 204.2L967.702 151C967.435 150.467 967.035 150.2 966.502 150.2H953.702C953.035 150.2 952.702 150.533 952.702 151.2L946.302 203.6C946.168 204.267 945.835 204.867 945.302 205.4C944.902 205.8 944.368 206 943.702 206H916.102C915.435 206 914.902 205.8 914.502 205.4C914.102 204.867 913.968 204.267 914.102 203.6L930.702 68.4C930.702 67.7333 930.968 67.2 931.502 66.8C932.035 66.2667 932.635 66 933.302 66H990.902C1002.63 66 1011.9 69.3333 1018.7 76C1025.5 82.6667 1028.9 91.6667 1028.9 103C1028.9 104.333 1028.77 106.467 1028.5 109.4C1027.3 118.333 1024.17 126.067 1019.1 132.6C1014.03 139.133 1007.5 143.867 999.502 146.8C998.835 147.067 998.635 147.533 998.902 148.2L1017.7 203.2C1017.83 203.467 1017.9 203.8 1017.9 204.2C1017.9 205.4 1017.1 206 1015.5 206H986.502ZM960.702 94.4C959.902 94.4 959.502 94.7333 959.502 95.4L956.102 123.8C955.835 124.467 956.102 124.8 956.902 124.8H978.502C983.702 124.8 987.968 123.2 991.302 120C994.768 116.8 996.502 112.6 996.502 107.4C996.502 103.4 995.168 100.267 992.502 98C989.968 95.6 986.502 94.4 982.102 94.4H960.702ZM1035.24 206C1034.58 206 1034.04 205.8 1033.64 205.4C1033.24 204.867 1033.11 204.267 1033.24 203.6L1049.84 68.4C1049.84 67.7333 1050.11 67.2 1050.64 66.8C1051.18 66.2667 1051.78 66 1052.44 66H1079.84C1081.31 66 1082.04 66.8 1082.04 68.4L1065.44 203.6C1065.31 204.267 1064.98 204.867 1064.44 205.4C1064.04 205.8 1063.51 206 1062.84 206H1035.24ZM1188.41 67.6C1188.94 66.5333 1189.88 66 1191.21 66H1218.61C1219.28 66 1219.81 66.2667 1220.21 66.8C1220.61 67.2 1220.74 67.7333 1220.61 68.4L1204.01 203.6C1203.88 204.267 1203.54 204.867 1203.01 205.4C1202.61 205.8 1202.08 206 1201.41 206H1173.81C1173.14 206 1172.61 205.8 1172.21 205.4C1171.81 204.867 1171.68 204.267 1171.81 203.6L1181.61 123.2C1181.74 122.667 1181.68 122.4 1181.41 122.4C1181.14 122.4 1180.88 122.6 1180.61 123L1160.41 150.6C1159.88 151.667 1158.94 152.2 1157.61 152.2H1143.81C1142.61 152.2 1141.74 151.667 1141.21 150.6L1127.81 122.8C1127.68 122.4 1127.48 122.2 1127.21 122.2C1126.94 122.2 1126.74 122.467 1126.61 123L1116.81 203.6C1116.68 204.267 1116.34 204.867 1115.81 205.4C1115.41 205.8 1114.88 206 1114.21 206H1086.61C1085.94 206 1085.41 205.8 1085.01 205.4C1084.61 204.867 1084.48 204.267 1084.61 203.6L1101.21 68.4C1101.21 67.7333 1101.48 67.2 1102.01 66.8C1102.54 66.2667 1103.14 66 1103.81 66H1131.01C1132.34 66 1133.21 66.5333 1133.61 67.6L1155.21 111.2C1155.61 112 1156.01 112 1156.41 111.2L1188.41 67.6ZM1333.28 92C1333.15 92.6667 1332.81 93.2667 1332.28 93.8C1331.88 94.2 1331.35 94.4 1330.68 94.4H1269.88C1269.08 94.4 1268.68 94.7333 1268.68 95.4L1265.68 120C1265.68 120.667 1265.95 121 1266.48 121H1305.48C1306.15 121 1306.68 121.267 1307.08 121.8C1307.48 122.2 1307.61 122.733 1307.48 123.4L1304.68 146.8C1304.55 147.467 1304.21 148.067 1303.68 148.6C1303.28 149 1302.75 149.2 1302.08 149.2H1263.08C1262.55 149.2 1262.15 149.533 1261.88 150.2L1258.68 176.6C1258.68 177.267 1258.95 177.6 1259.48 177.6H1320.48C1321.15 177.6 1321.68 177.867 1322.08 178.4C1322.48 178.8 1322.61 179.333 1322.48 180L1319.68 203.6C1319.55 204.267 1319.21 204.867 1318.68 205.4C1318.28 205.8 1317.75 206 1317.08 206H1225.28C1224.61 206 1224.08 205.8 1223.68 205.4C1223.28 204.867 1223.15 204.267 1223.28 203.6L1239.88 68.4C1239.88 67.7333 1240.15 67.2 1240.68 66.8C1241.21 66.2667 1241.81 66 1242.48 66H1334.28C1334.95 66 1335.48 66.2667 1335.88 66.8C1336.28 67.2 1336.41 67.7333 1336.28 68.4L1333.28 92Z" fill="white"/>
<path d="M901.486 76.2L900.793 76.9206L900.799 76.927L901.486 76.2ZM911.886 110.6L912.878 110.722L912.881 110.703L912.882 110.683L911.886 110.6ZM903.286 133.6L904.105 134.173L904.105 134.173L903.286 133.6ZM885.086 149L884.652 148.099L884.645 148.102L885.086 149ZM835.486 155.4L834.557 155.029L834.509 155.15L834.493 155.281L835.486 155.4ZM829.686 203.6L830.667 203.796L830.674 203.758L830.679 203.719L829.686 203.6ZM828.686 205.4L829.393 206.107L829.393 206.107L828.686 205.4ZM797.886 205.4L797.086 206L797.129 206.057L797.179 206.107L797.886 205.4ZM797.486 203.6L798.467 203.796L798.474 203.759L798.478 203.722L797.486 203.6ZM814.086 68.4L813.105 68.2039L813.098 68.2408L813.093 68.2781L814.086 68.4ZM814.886 66.8L814.179 66.0929L814.179 66.0929L814.886 66.8ZM875.486 98.4L874.796 99.1241L874.814 99.1409L874.832 99.1568L875.486 98.4ZM842.886 95.4L841.957 95.0286L841.909 95.1504L841.893 95.2806L842.886 95.4ZM839.086 127L840.014 127.371L840.063 127.25L840.079 127.119L839.086 127ZM872.686 67C884.625 67 893.954 70.3401 900.793 76.9206L902.179 75.4794C894.884 68.4598 885.013 65 872.686 65V67ZM900.799 76.927C907.765 83.5055 911.286 92.4238 911.286 103.8H913.286C913.286 91.9762 909.607 82.4944 902.173 75.473L900.799 76.927ZM911.286 103.8C911.286 105.087 911.156 107.317 910.889 110.517L912.882 110.683C913.149 107.483 913.286 105.179 913.286 103.8H911.286ZM910.893 110.478C909.845 118.994 907.033 126.504 902.467 133.027L904.105 134.173C908.872 127.363 911.793 119.539 912.878 110.722L910.893 110.478ZM902.467 133.027C897.9 139.55 891.967 144.572 884.652 148.099L885.52 149.901C893.138 146.228 899.338 140.983 904.105 134.173L902.467 133.027ZM884.645 148.102C877.466 151.627 869.353 153.4 860.286 153.4V155.4C869.619 155.4 878.04 153.573 885.527 149.898L884.645 148.102ZM860.286 153.4H836.686V155.4H860.286V153.4ZM836.686 153.4C836.192 153.4 835.73 153.561 835.346 153.882C834.979 154.187 834.73 154.597 834.557 155.029L836.414 155.771C836.508 155.537 836.593 155.446 836.626 155.418C836.64 155.406 836.647 155.404 836.647 155.404C836.648 155.404 836.658 155.4 836.686 155.4V153.4ZM834.493 155.281L828.693 203.481L830.679 203.719L836.479 155.519L834.493 155.281ZM828.705 203.404C828.615 203.856 828.388 204.283 827.979 204.693L829.393 206.107C830.05 205.45 830.49 204.677 830.667 203.796L828.705 203.404ZM827.979 204.693C827.8 204.872 827.538 205 827.086 205V207C827.967 207 828.772 206.728 829.393 206.107L827.979 204.693ZM827.086 205H799.486V207H827.086V205ZM799.486 205C799.034 205 798.772 204.872 798.593 204.693L797.179 206.107C797.8 206.728 798.605 207 799.486 207V205ZM798.686 204.8C798.46 204.499 798.388 204.19 798.467 203.796L796.505 203.404C796.317 204.343 796.511 205.234 797.086 206L798.686 204.8ZM798.478 203.722L815.078 68.5219L813.093 68.2781L796.493 203.478L798.478 203.722ZM815.067 68.5961C815.169 68.0834 815.359 67.7414 815.593 67.5071L814.179 66.0929C813.613 66.6586 813.269 67.3833 813.105 68.2039L815.067 68.5961ZM815.593 67.5071C815.966 67.1345 816.32 67 816.686 67V65C815.718 65 814.873 65.3989 814.179 66.0929L815.593 67.5071ZM816.686 67H872.686V65H816.686V67ZM859.886 129C865.975 129 871.035 127.124 874.98 123.32L873.592 121.88C870.07 125.276 865.53 127 859.886 127V129ZM874.98 123.32C878.93 119.511 880.886 114.573 880.886 108.6H878.886C878.886 114.093 877.108 118.489 873.592 121.88L874.98 123.32ZM880.886 108.6C880.886 104.076 879.317 100.387 876.14 97.6432L874.832 99.1568C877.522 101.48 878.886 104.591 878.886 108.6H880.886ZM876.176 97.6759C873.147 94.7918 869.078 93.4 864.086 93.4V95.4C868.694 95.4 872.225 96.6749 874.796 99.1241L876.176 97.6759ZM864.086 93.4H844.086V95.4H864.086V93.4ZM844.086 93.4C843.592 93.4 843.13 93.5614 842.746 93.8818C842.379 94.1874 842.13 94.5966 841.957 95.0286L843.814 95.7714C843.908 95.5367 843.993 95.446 844.026 95.4182C844.04 95.4063 844.047 95.4044 844.047 95.4042C844.048 95.404 844.058 95.4 844.086 95.4V93.4ZM841.893 95.2806L838.093 126.881L840.079 127.119L843.879 95.5194L841.893 95.2806ZM838.157 126.629C837.985 127.06 837.823 127.772 838.305 128.375C838.742 128.92 839.428 129 839.886 129V127C839.82 127 839.77 126.997 839.735 126.992C839.699 126.988 839.684 126.983 839.684 126.983C839.684 126.983 839.707 126.99 839.741 127.011C839.777 127.034 839.823 127.07 839.867 127.125C839.965 127.249 839.986 127.376 839.986 127.437C839.986 127.482 839.976 127.467 840.014 127.371L838.157 126.629ZM839.886 129H859.886V127H839.886V129ZM983.902 204.2L982.945 204.491L982.949 204.504L982.953 204.516L983.902 204.2ZM967.702 151L968.658 150.709L968.634 150.628L968.596 150.553L967.702 151ZM952.702 151.2L953.694 151.321L953.702 151.261V151.2H952.702ZM946.302 203.6L947.282 203.796L947.29 203.759L947.294 203.721L946.302 203.6ZM945.302 205.4L944.594 204.693L944.594 204.693L945.302 205.4ZM914.502 205.4L913.702 206L913.744 206.057L913.794 206.107L914.502 205.4ZM914.102 203.6L915.082 203.796L915.09 203.759L915.094 203.722L914.102 203.6ZM930.702 68.4L931.694 68.5219L931.702 68.4612V68.4H930.702ZM931.502 66.8L932.102 67.6L932.158 67.5573L932.209 67.5071L931.502 66.8ZM1018.7 76L1019.4 75.2859L1018.7 76ZM1028.5 109.4L1029.49 109.533L1029.5 109.512L1029.5 109.491L1028.5 109.4ZM1019.1 132.6L1018.31 131.987L1018.31 131.987L1019.1 132.6ZM999.502 146.8L999.157 145.861L999.144 145.866L999.13 145.872L999.502 146.8ZM998.902 148.2L999.848 147.877L999.84 147.852L999.83 147.829L998.902 148.2ZM1017.7 203.2L1016.76 203.523L1016.78 203.587L1016.81 203.647L1017.7 203.2ZM959.502 95.4L960.494 95.5189L960.502 95.4596V95.4H959.502ZM956.102 123.8L957.03 124.171L957.079 124.049L957.094 123.919L956.102 123.8ZM991.302 120L990.623 119.265L990.616 119.272L990.609 119.279L991.302 120ZM992.502 98L991.814 98.7259L991.833 98.7445L991.854 98.7619L992.502 98ZM986.502 205C985.984 205 985.647 204.885 985.421 204.728C985.199 204.574 984.996 204.321 984.85 203.884L982.953 204.516C983.207 205.279 983.638 205.926 984.282 206.372C984.922 206.815 985.685 207 986.502 207V205ZM984.858 203.909L968.658 150.709L966.745 151.291L982.945 204.491L984.858 203.909ZM968.596 150.553C968.403 150.167 968.132 149.818 967.756 149.568C967.374 149.313 966.943 149.2 966.502 149.2V151.2C966.593 151.2 966.629 151.22 966.647 151.232C966.671 151.248 966.733 151.299 966.807 151.447L968.596 150.553ZM966.502 149.2H953.702V151.2H966.502V149.2ZM953.702 149.2C953.214 149.2 952.665 149.323 952.244 149.743C951.824 150.163 951.702 150.713 951.702 151.2H953.702C953.702 151.158 953.704 151.127 953.707 151.107C953.71 151.087 953.713 151.078 953.713 151.079C953.712 151.08 953.709 151.09 953.7 151.105C953.695 151.113 953.689 151.121 953.682 151.13C953.675 151.139 953.667 151.148 953.659 151.157C953.65 151.166 953.641 151.174 953.632 151.181C953.623 151.188 953.614 151.194 953.607 151.198C953.591 151.207 953.581 151.211 953.58 151.211C953.58 151.211 953.588 151.208 953.609 151.206C953.629 151.203 953.66 151.2 953.702 151.2V149.2ZM951.709 151.079L945.309 203.479L947.294 203.721L953.694 151.321L951.709 151.079ZM945.321 203.404C945.231 203.856 945.004 204.283 944.594 204.693L946.009 206.107C946.666 205.45 947.106 204.677 947.282 203.796L945.321 203.404ZM944.594 204.693C944.415 204.872 944.154 205 943.702 205V207C944.582 207 945.388 206.728 946.009 206.107L944.594 204.693ZM943.702 205H916.102V207H943.702V205ZM916.102 205C915.649 205 915.388 204.872 915.209 204.693L913.794 206.107C914.415 206.728 915.221 207 916.102 207V205ZM915.302 204.8C915.076 204.499 915.003 204.19 915.082 203.796L913.121 203.404C912.933 204.343 913.127 205.234 913.702 206L915.302 204.8ZM915.094 203.722L931.694 68.5219L929.709 68.2781L913.109 203.478L915.094 203.722ZM931.702 68.4C931.702 68.0481 931.82 67.8111 932.102 67.6L930.902 66C930.116 66.5889 929.702 67.4186 929.702 68.4H931.702ZM932.209 67.5071C932.581 67.1345 932.936 67 933.302 67V65C932.334 65 931.488 65.3989 930.794 66.0929L932.209 67.5071ZM933.302 67H990.902V65H933.302V67ZM990.902 67C1002.44 67 1011.43 70.2712 1018 76.7141L1019.4 75.2859C1012.37 68.3954 1002.83 65 990.902 65V67ZM1018 76.7141C1024.57 83.1574 1027.9 91.8803 1027.9 103H1029.9C1029.9 91.453 1026.43 82.176 1019.4 75.2859L1018 76.7141ZM1027.9 103C1027.9 104.285 1027.77 106.379 1027.51 109.309L1029.5 109.491C1029.76 106.554 1029.9 104.382 1029.9 103H1027.9ZM1027.51 109.267C1026.33 118.042 1023.26 125.606 1018.31 131.987L1019.89 133.213C1025.08 126.528 1028.27 118.625 1029.49 109.533L1027.51 109.267ZM1018.31 131.987C1013.36 138.367 1006.99 142.99 999.157 145.861L999.846 147.739C1008.02 144.743 1014.71 139.899 1019.89 133.213L1018.31 131.987ZM999.13 145.872C998.654 146.062 998.174 146.393 997.932 146.956C997.691 147.519 997.783 148.095 997.973 148.571L999.83 147.829C999.793 147.737 999.788 147.689 999.787 147.679C999.787 147.675 999.788 147.68 999.786 147.694C999.783 147.707 999.779 147.725 999.771 147.744C999.763 147.763 999.753 147.778 999.745 147.789C999.736 147.8 999.732 147.804 999.735 147.801C999.743 147.794 999.781 147.765 999.873 147.728L999.13 145.872ZM997.955 148.523L1016.76 203.523L1018.65 202.877L999.848 147.877L997.955 148.523ZM1016.81 203.647C1016.85 203.736 1016.9 203.905 1016.9 204.2H1018.9C1018.9 203.695 1018.82 203.197 1018.6 202.753L1016.81 203.647ZM1016.9 204.2C1016.9 204.556 1016.8 204.678 1016.7 204.75C1016.55 204.863 1016.21 205 1015.5 205V207C1016.4 207 1017.25 206.837 1017.9 206.35C1018.61 205.822 1018.9 205.044 1018.9 204.2H1016.9ZM1015.5 205H986.502V207H1015.5V205ZM960.702 93.4C960.187 93.4 959.615 93.5034 959.161 93.8818C958.672 94.2893 958.502 94.8597 958.502 95.4H960.502C960.502 95.3313 960.512 95.3163 960.505 95.3339C960.496 95.3576 960.474 95.3915 960.442 95.4182C960.414 95.4417 960.404 95.437 960.444 95.426C960.486 95.4143 960.568 95.4 960.702 95.4V93.4ZM958.509 95.2811L955.109 123.681L957.094 123.919L960.494 95.5189L958.509 95.2811ZM955.173 123.429C955.001 123.86 954.839 124.572 955.321 125.175C955.757 125.72 956.444 125.8 956.902 125.8V123.8C956.835 123.8 956.786 123.797 956.751 123.792C956.715 123.788 956.7 123.783 956.7 123.783C956.7 123.783 956.722 123.79 956.757 123.811C956.792 123.834 956.838 123.87 956.882 123.925C956.981 124.049 957.002 124.176 957.002 124.237C957.002 124.282 956.992 124.267 957.03 124.171L955.173 123.429ZM956.902 125.8H978.502V123.8H956.902V125.8ZM978.502 125.8C983.925 125.8 988.451 124.123 991.994 120.721L990.609 119.279C987.486 122.277 983.479 123.8 978.502 123.8V125.8ZM991.98 120.735C995.674 117.325 997.502 112.847 997.502 107.4H995.502C995.502 112.353 993.863 116.275 990.623 119.265L991.98 120.735ZM997.502 107.4C997.502 103.153 996.073 99.7231 993.149 97.2381L991.854 98.7619C994.264 100.81 995.502 103.647 995.502 107.4H997.502ZM993.189 97.274C990.425 94.6553 986.688 93.4 982.102 93.4V95.4C986.315 95.4 989.511 96.5446 991.814 98.7259L993.189 97.274ZM982.102 93.4H960.702V95.4H982.102V93.4ZM1033.64 205.4L1032.84 206L1032.88 206.057L1032.94 206.107L1033.64 205.4ZM1033.24 203.6L1034.22 203.796L1034.23 203.759L1034.23 203.722L1033.24 203.6ZM1049.84 68.4L1050.83 68.5219L1050.84 68.4612V68.4H1049.84ZM1050.64 66.8L1051.24 67.6L1051.3 67.5573L1051.35 67.5071L1050.64 66.8ZM1082.04 68.4L1083.03 68.5219L1083.04 68.4612V68.4H1082.04ZM1065.44 203.6L1066.42 203.796L1066.43 203.759L1066.43 203.722L1065.44 203.6ZM1064.44 205.4L1063.74 204.693L1063.74 204.693L1064.44 205.4ZM1035.24 205C1034.79 205 1034.53 204.872 1034.35 204.693L1032.94 206.107C1033.56 206.728 1034.36 207 1035.24 207V205ZM1034.44 204.8C1034.22 204.499 1034.14 204.19 1034.22 203.796L1032.26 203.404C1032.07 204.343 1032.27 205.234 1032.84 206L1034.44 204.8ZM1034.23 203.722L1050.83 68.5219L1048.85 68.2781L1032.25 203.478L1034.23 203.722ZM1050.84 68.4C1050.84 68.0481 1050.96 67.8111 1051.24 67.6L1050.04 66C1049.26 66.5889 1048.84 67.4186 1048.84 68.4H1050.84ZM1051.35 67.5071C1051.72 67.1345 1052.08 67 1052.44 67V65C1051.47 65 1050.63 65.3989 1049.94 66.0929L1051.35 67.5071ZM1052.44 67H1079.84V65H1052.44V67ZM1079.84 67C1080.4 67 1080.64 67.1475 1080.76 67.2757C1080.89 67.4204 1081.04 67.7336 1081.04 68.4H1083.04C1083.04 67.4664 1082.83 66.5796 1082.23 65.9243C1081.61 65.2525 1080.75 65 1079.84 65V67ZM1081.05 68.2781L1064.45 203.478L1066.43 203.722L1083.03 68.5219L1081.05 68.2781ZM1064.46 203.404C1064.37 203.856 1064.14 204.283 1063.74 204.693L1065.15 206.107C1065.81 205.45 1066.25 204.677 1066.42 203.796L1064.46 203.404ZM1063.74 204.693C1063.56 204.872 1063.29 205 1062.84 205V207C1063.72 207 1064.53 206.728 1065.15 206.107L1063.74 204.693ZM1062.84 205H1035.24V207H1062.84V205ZM1188.41 67.6L1189.22 68.1917L1189.27 68.1232L1189.3 68.0472L1188.41 67.6ZM1220.21 66.8L1219.41 67.4L1219.45 67.4568L1219.5 67.5071L1220.21 66.8ZM1220.61 68.4L1219.63 68.2039L1219.62 68.2408L1219.62 68.2781L1220.61 68.4ZM1204.01 203.6L1204.99 203.796L1205 203.759L1205 203.722L1204.01 203.6ZM1203.01 205.4L1203.72 206.107L1203.72 206.107L1203.01 205.4ZM1172.21 205.4L1171.41 206L1171.45 206.057L1171.5 206.107L1172.21 205.4ZM1171.81 203.6L1172.79 203.796L1172.8 203.759L1172.8 203.721L1171.81 203.6ZM1181.61 123.2L1180.64 122.957L1180.62 123.018L1180.62 123.079L1181.61 123.2ZM1180.61 123L1181.42 123.591L1181.43 123.573L1181.44 123.555L1180.61 123ZM1160.41 150.6L1159.6 150.009L1159.55 150.077L1159.51 150.153L1160.41 150.6ZM1141.21 150.6L1140.31 151.034L1140.31 151.041L1140.31 151.047L1141.21 150.6ZM1127.81 122.8L1126.86 123.116L1126.88 123.177L1126.91 123.234L1127.81 122.8ZM1126.61 123L1125.64 122.757L1125.62 122.818L1125.62 122.879L1126.61 123ZM1116.81 203.6L1117.79 203.796L1117.8 203.759L1117.8 203.721L1116.81 203.6ZM1115.81 205.4L1115.1 204.693L1115.1 204.693L1115.81 205.4ZM1085.01 205.4L1084.21 206L1084.25 206.057L1084.3 206.107L1085.01 205.4ZM1084.61 203.6L1085.59 203.796L1085.6 203.759L1085.6 203.722L1084.61 203.6ZM1101.21 68.4L1102.2 68.5219L1102.21 68.4612V68.4H1101.21ZM1102.01 66.8L1102.61 67.6L1102.67 67.5573L1102.72 67.5071L1102.01 66.8ZM1133.61 67.6L1132.67 67.9511L1132.69 67.9985L1132.71 68.0439L1133.61 67.6ZM1155.21 111.2L1154.31 111.644L1154.31 111.647L1155.21 111.2ZM1156.41 111.2L1155.6 110.608L1155.55 110.677L1155.51 110.753L1156.41 111.2ZM1189.3 68.0472C1189.49 67.6704 1189.73 67.4264 1190.01 67.2682C1190.29 67.1064 1190.68 67 1191.21 67V65C1190.41 65 1189.66 65.1603 1189.01 65.5317C1188.36 65.9069 1187.86 66.4629 1187.51 67.1528L1189.3 68.0472ZM1191.21 67H1218.61V65H1191.21V67ZM1218.61 67C1218.96 67 1219.2 67.1185 1219.41 67.4L1221.01 66.2C1220.42 65.4149 1219.59 65 1218.61 65V67ZM1219.5 67.5071C1219.62 67.6207 1219.71 67.7891 1219.63 68.2039L1221.59 68.5961C1221.77 67.6776 1221.6 66.7793 1220.92 66.0929L1219.5 67.5071ZM1219.62 68.2781L1203.02 203.478L1205 203.722L1221.6 68.5219L1219.62 68.2781ZM1203.03 203.404C1202.94 203.856 1202.71 204.283 1202.3 204.693L1203.72 206.107C1204.37 205.45 1204.81 204.677 1204.99 203.796L1203.03 203.404ZM1202.3 204.693C1202.12 204.872 1201.86 205 1201.41 205V207C1202.29 207 1203.1 206.728 1203.72 206.107L1202.3 204.693ZM1201.41 205H1173.81V207H1201.41V205ZM1173.81 205C1173.36 205 1173.1 204.872 1172.92 204.693L1171.5 206.107C1172.12 206.728 1172.93 207 1173.81 207V205ZM1173.01 204.8C1172.78 204.499 1172.71 204.19 1172.79 203.796L1170.83 203.404C1170.64 204.343 1170.83 205.234 1171.41 206L1173.01 204.8ZM1172.8 203.721L1182.6 123.321L1180.62 123.079L1170.82 203.479L1172.8 203.721ZM1182.58 123.443C1182.65 123.146 1182.73 122.742 1182.63 122.357C1182.58 122.14 1182.45 121.874 1182.2 121.669C1181.94 121.462 1181.65 121.4 1181.41 121.4V123.4C1181.31 123.4 1181.12 123.372 1180.95 123.231C1180.77 123.092 1180.71 122.927 1180.69 122.843C1180.67 122.766 1180.68 122.731 1180.68 122.767C1180.67 122.798 1180.66 122.859 1180.64 122.957L1182.58 123.443ZM1181.41 121.4C1180.61 121.4 1180.08 121.985 1179.78 122.445L1181.44 123.555C1181.49 123.486 1181.53 123.436 1181.56 123.402C1181.59 123.367 1181.61 123.353 1181.61 123.35C1181.61 123.348 1181.6 123.36 1181.56 123.374C1181.52 123.388 1181.47 123.4 1181.41 123.4V121.4ZM1179.8 122.409L1159.6 150.009L1161.22 151.191L1181.42 123.591L1179.8 122.409ZM1159.51 150.153C1159.33 150.53 1159.09 150.774 1158.81 150.932C1158.53 151.094 1158.14 151.2 1157.61 151.2V153.2C1158.41 153.2 1159.16 153.04 1159.81 152.668C1160.46 152.293 1160.96 151.737 1161.3 151.047L1159.51 150.153ZM1157.61 151.2H1143.81V153.2H1157.61V151.2ZM1143.81 151.2C1143.36 151.2 1143.03 151.102 1142.78 150.948C1142.53 150.795 1142.3 150.549 1142.1 150.153L1140.31 151.047C1140.65 151.718 1141.12 152.272 1141.74 152.652C1142.35 153.032 1143.06 153.2 1143.81 153.2V151.2ZM1142.11 150.166L1128.71 122.366L1126.91 123.234L1140.31 151.034L1142.11 150.166ZM1128.76 122.484C1128.58 121.953 1128.14 121.2 1127.21 121.2V123.2C1127.15 123.2 1127.08 123.188 1127 123.157C1126.93 123.126 1126.88 123.087 1126.85 123.057C1126.8 123.007 1126.82 122.997 1126.86 123.116L1128.76 122.484ZM1127.21 121.2C1126.68 121.2 1126.3 121.485 1126.06 121.8C1125.84 122.087 1125.72 122.435 1125.64 122.757L1127.58 123.243C1127.6 123.145 1127.63 123.078 1127.64 123.035C1127.66 122.99 1127.67 122.984 1127.66 123C1127.65 123.017 1127.6 123.07 1127.52 123.118C1127.43 123.171 1127.32 123.2 1127.21 123.2V121.2ZM1125.62 122.879L1115.82 203.479L1117.8 203.721L1127.6 123.121L1125.62 122.879ZM1115.83 203.404C1115.74 203.856 1115.51 204.283 1115.1 204.693L1116.52 206.107C1117.17 205.45 1117.61 204.677 1117.79 203.796L1115.83 203.404ZM1115.1 204.693C1114.92 204.872 1114.66 205 1114.21 205V207C1115.09 207 1115.9 206.728 1116.52 206.107L1115.1 204.693ZM1114.21 205H1086.61V207H1114.21V205ZM1086.61 205C1086.16 205 1085.9 204.872 1085.72 204.693L1084.3 206.107C1084.92 206.728 1085.73 207 1086.61 207V205ZM1085.81 204.8C1085.58 204.499 1085.51 204.19 1085.59 203.796L1083.63 203.404C1083.44 204.343 1083.63 205.234 1084.21 206L1085.81 204.8ZM1085.6 203.722L1102.2 68.5219L1100.22 68.2781L1083.62 203.478L1085.6 203.722ZM1102.21 68.4C1102.21 68.0481 1102.33 67.8111 1102.61 67.6L1101.41 66C1100.62 66.5889 1100.21 67.4186 1100.21 68.4H1102.21ZM1102.72 67.5071C1103.09 67.1345 1103.44 67 1103.81 67V65C1102.84 65 1102 65.3989 1101.3 66.0929L1102.72 67.5071ZM1103.81 67H1131.01V65H1103.81V67ZM1131.01 67C1131.55 67 1131.9 67.1077 1132.14 67.2516C1132.36 67.388 1132.54 67.5996 1132.67 67.9511L1134.55 67.2489C1134.28 66.5337 1133.83 65.9453 1133.18 65.5483C1132.55 65.1589 1131.8 65 1131.01 65V67ZM1132.71 68.0439L1154.31 111.644L1156.11 110.756L1134.51 67.1561L1132.71 68.0439ZM1154.31 111.647C1154.44 111.894 1154.6 112.15 1154.8 112.357C1155.01 112.566 1155.35 112.8 1155.81 112.8C1156.27 112.8 1156.61 112.566 1156.82 112.357C1157.02 112.15 1157.18 111.894 1157.3 111.647L1155.51 110.753C1155.44 110.906 1155.4 110.95 1155.4 110.943C1155.41 110.934 1155.55 110.8 1155.81 110.8C1156.07 110.8 1156.21 110.934 1156.22 110.943C1156.22 110.95 1156.18 110.906 1156.1 110.753L1154.31 111.647ZM1157.22 111.792L1189.22 68.1917L1187.6 67.0083L1155.6 110.608L1157.22 111.792ZM1333.28 92L1334.26 92.1961L1334.27 92.1613L1334.27 92.1261L1333.28 92ZM1332.28 93.8L1331.57 93.0929L1331.57 93.0929L1332.28 93.8ZM1268.68 95.4L1269.67 95.521L1269.68 95.4607V95.4H1268.68ZM1265.68 120L1264.69 119.879L1264.68 119.939V120H1265.68ZM1307.08 121.8L1306.28 122.4L1306.32 122.457L1306.37 122.507L1307.08 121.8ZM1307.48 123.4L1306.5 123.204L1306.49 123.242L1306.49 123.281L1307.48 123.4ZM1304.68 146.8L1305.66 146.996L1305.67 146.958L1305.67 146.919L1304.68 146.8ZM1303.68 148.6L1302.97 147.893L1303.68 148.6ZM1261.88 150.2L1260.95 149.829L1260.9 149.95L1260.89 150.08L1261.88 150.2ZM1258.68 176.6L1257.69 176.48L1257.68 176.54V176.6H1258.68ZM1322.08 178.4L1321.28 179L1321.32 179.057L1321.37 179.107L1322.08 178.4ZM1322.48 180L1321.5 179.804L1321.49 179.843L1321.49 179.882L1322.48 180ZM1319.68 203.6L1320.66 203.796L1320.67 203.757L1320.67 203.718L1319.68 203.6ZM1318.68 205.4L1319.39 206.107L1319.39 206.107L1318.68 205.4ZM1223.68 205.4L1222.88 206L1222.92 206.057L1222.97 206.107L1223.68 205.4ZM1223.28 203.6L1224.26 203.796L1224.27 203.759L1224.27 203.722L1223.28 203.6ZM1239.88 68.4L1240.87 68.5219L1240.88 68.4612V68.4H1239.88ZM1240.68 66.8L1241.28 67.6L1241.34 67.5573L1241.39 67.5071L1240.68 66.8ZM1335.88 66.8L1335.08 67.4L1335.12 67.4568L1335.17 67.5071L1335.88 66.8ZM1336.28 68.4L1335.3 68.2039L1335.29 68.2387L1335.29 68.2739L1336.28 68.4ZM1332.3 91.8039C1332.21 92.2561 1331.98 92.6833 1331.57 93.0929L1332.99 94.5071C1333.65 93.85 1334.09 93.0773 1334.26 92.1961L1332.3 91.8039ZM1331.57 93.0929C1331.39 93.2722 1331.13 93.4 1330.68 93.4V95.4C1331.56 95.4 1332.37 95.1278 1332.99 94.5071L1331.57 93.0929ZM1330.68 93.4H1269.88V95.4H1330.68V93.4ZM1269.88 93.4C1269.37 93.4 1268.8 93.5034 1268.34 93.8818C1267.85 94.2893 1267.68 94.8597 1267.68 95.4H1269.68C1269.68 95.3313 1269.69 95.3163 1269.68 95.3339C1269.68 95.3576 1269.65 95.3915 1269.62 95.4182C1269.59 95.4417 1269.58 95.437 1269.62 95.426C1269.67 95.4143 1269.75 95.4 1269.88 95.4V93.4ZM1267.69 95.2789L1264.69 119.879L1266.67 120.121L1269.67 95.521L1267.69 95.2789ZM1264.68 120C1264.68 120.44 1264.76 120.955 1265.1 121.375C1265.47 121.837 1265.99 122 1266.48 122V120C1266.45 120 1266.47 119.995 1266.52 120.014C1266.54 120.024 1266.57 120.039 1266.59 120.059C1266.62 120.08 1266.64 120.103 1266.66 120.125C1266.7 120.171 1266.7 120.199 1266.7 120.18C1266.69 120.159 1266.68 120.103 1266.68 120H1264.68ZM1266.48 122H1305.48V120H1266.48V122ZM1305.48 122C1305.83 122 1306.07 122.118 1306.28 122.4L1307.88 121.2C1307.29 120.415 1306.46 120 1305.48 120V122ZM1306.37 122.507C1306.49 122.621 1306.58 122.789 1306.5 123.204L1308.46 123.596C1308.65 122.678 1308.47 121.779 1307.79 121.093L1306.37 122.507ZM1306.49 123.281L1303.69 146.681L1305.67 146.919L1308.47 123.519L1306.49 123.281ZM1303.7 146.604C1303.61 147.056 1303.38 147.483 1302.97 147.893L1304.39 149.307C1305.05 148.65 1305.49 147.877 1305.66 146.996L1303.7 146.604ZM1302.97 147.893C1302.79 148.072 1302.53 148.2 1302.08 148.2V150.2C1302.96 150.2 1303.77 149.928 1304.39 149.307L1302.97 147.893ZM1302.08 148.2H1263.08V150.2H1302.08V148.2ZM1263.08 148.2C1262.59 148.2 1262.13 148.361 1261.74 148.682C1261.37 148.987 1261.13 149.397 1260.95 149.829L1262.81 150.571C1262.9 150.337 1262.99 150.246 1263.02 150.218C1263.04 150.206 1263.04 150.204 1263.04 150.204C1263.04 150.204 1263.05 150.2 1263.08 150.2V148.2ZM1260.89 150.08L1257.69 176.48L1259.67 176.72L1262.87 150.32L1260.89 150.08ZM1257.68 176.6C1257.68 177.04 1257.76 177.555 1258.1 177.975C1258.47 178.437 1258.99 178.6 1259.48 178.6V176.6C1259.45 176.6 1259.47 176.595 1259.52 176.614C1259.54 176.624 1259.57 176.639 1259.59 176.659C1259.62 176.68 1259.64 176.703 1259.66 176.725C1259.7 176.771 1259.7 176.799 1259.7 176.78C1259.69 176.759 1259.68 176.703 1259.68 176.6H1257.68ZM1259.48 178.6H1320.48V176.6H1259.48V178.6ZM1320.48 178.6C1320.83 178.6 1321.07 178.718 1321.28 179L1322.88 177.8C1322.29 177.015 1321.46 176.6 1320.48 176.6V178.6ZM1321.37 179.107C1321.49 179.221 1321.58 179.389 1321.5 179.804L1323.46 180.196C1323.65 179.278 1323.47 178.379 1322.79 177.693L1321.37 179.107ZM1321.49 179.882L1318.69 203.482L1320.67 203.718L1323.47 180.118L1321.49 179.882ZM1318.7 203.404C1318.61 203.856 1318.38 204.283 1317.97 204.693L1319.39 206.107C1320.05 205.45 1320.49 204.677 1320.66 203.796L1318.7 203.404ZM1317.97 204.693C1317.79 204.872 1317.53 205 1317.08 205V207C1317.96 207 1318.77 206.728 1319.39 206.107L1317.97 204.693ZM1317.08 205H1225.28V207H1317.08V205ZM1225.28 205C1224.83 205 1224.57 204.872 1224.39 204.693L1222.97 206.107C1223.59 206.728 1224.4 207 1225.28 207V205ZM1224.48 204.8C1224.26 204.499 1224.18 204.19 1224.26 203.796L1222.3 203.404C1222.11 204.343 1222.31 205.234 1222.88 206L1224.48 204.8ZM1224.27 203.722L1240.87 68.5219L1238.89 68.2781L1222.29 203.478L1224.27 203.722ZM1240.88 68.4C1240.88 68.0481 1241 67.8111 1241.28 67.6L1240.08 66C1239.3 66.5889 1238.88 67.4186 1238.88 68.4H1240.88ZM1241.39 67.5071C1241.76 67.1345 1242.12 67 1242.48 67V65C1241.51 65 1240.67 65.3989 1239.97 66.0929L1241.39 67.5071ZM1242.48 67H1334.28V65H1242.48V67ZM1334.28 67C1334.63 67 1334.87 67.1185 1335.08 67.4L1336.68 66.2C1336.09 65.4149 1335.26 65 1334.28 65V67ZM1335.17 67.5071C1335.29 67.6207 1335.38 67.7891 1335.3 68.2039L1337.26 68.5961C1337.45 67.6776 1337.27 66.7793 1336.59 66.0929L1335.17 67.5071ZM1335.29 68.2739L1332.29 91.8739L1334.27 92.1261L1337.27 68.5261L1335.29 68.2739Z" fill="black"/>
<path d="M878.686 61C890.819 61 900.419 64.4 907.486 71.2C914.686 78 918.286 87.2 918.286 98.8C918.286 100.133 918.153 102.4 917.886 105.6C916.819 114.267 913.953 121.933 909.286 128.6C904.619 135.267 898.553 140.4 891.086 144C883.753 147.6 875.486 149.4 866.286 149.4H842.686C842.153 149.4 841.753 149.733 841.486 150.4L835.686 198.6C835.553 199.267 835.219 199.867 834.686 200.4C834.286 200.8 833.753 201 833.086 201H805.486C804.819 201 804.286 200.8 803.886 200.4C803.486 199.867 803.353 199.267 803.486 198.6L820.086 63.4C820.219 62.7333 820.486 62.2 820.886 61.8C821.419 61.2667 822.019 61 822.686 61H878.686ZM865.886 123C871.753 123 876.553 121.2 880.286 117.6C884.019 114 885.886 109.333 885.886 103.6C885.886 99.3333 884.419 95.9333 881.486 93.4C878.686 90.7333 874.886 89.4 870.086 89.4H850.086C849.553 89.4 849.153 89.7333 848.886 90.4L845.086 122C844.819 122.667 845.086 123 845.886 123H865.886ZM992.502 201C991.168 201 990.302 200.4 989.902 199.2L973.702 146C973.435 145.467 973.035 145.2 972.502 145.2H959.702C959.035 145.2 958.702 145.533 958.702 146.2L952.302 198.6C952.168 199.267 951.835 199.867 951.302 200.4C950.902 200.8 950.368 201 949.702 201H922.102C921.435 201 920.902 200.8 920.502 200.4C920.102 199.867 919.968 199.267 920.102 198.6L936.702 63.4C936.702 62.7333 936.968 62.2 937.502 61.8C938.035 61.2667 938.635 61 939.302 61H996.902C1008.63 61 1017.9 64.3333 1024.7 71C1031.5 77.6667 1034.9 86.6667 1034.9 98C1034.9 99.3333 1034.77 101.467 1034.5 104.4C1033.3 113.333 1030.17 121.067 1025.1 127.6C1020.03 134.133 1013.5 138.867 1005.5 141.8C1004.83 142.067 1004.63 142.533 1004.9 143.2L1023.7 198.2C1023.83 198.467 1023.9 198.8 1023.9 199.2C1023.9 200.4 1023.1 201 1021.5 201H992.502ZM966.702 89.4C965.902 89.4 965.502 89.7333 965.502 90.4L962.102 118.8C961.835 119.467 962.102 119.8 962.902 119.8H984.502C989.702 119.8 993.968 118.2 997.302 115C1000.77 111.8 1002.5 107.6 1002.5 102.4C1002.5 98.4 1001.17 95.2667 998.502 93C995.968 90.6 992.502 89.4 988.102 89.4H966.702ZM1041.24 201C1040.58 201 1040.04 200.8 1039.64 200.4C1039.24 199.867 1039.11 199.267 1039.24 198.6L1055.84 63.4C1055.84 62.7333 1056.11 62.2 1056.64 61.8C1057.18 61.2667 1057.78 61 1058.44 61H1085.84C1087.31 61 1088.04 61.8 1088.04 63.4L1071.44 198.6C1071.31 199.267 1070.98 199.867 1070.44 200.4C1070.04 200.8 1069.51 201 1068.84 201H1041.24ZM1194.41 62.6C1194.94 61.5333 1195.88 61 1197.21 61H1224.61C1225.28 61 1225.81 61.2667 1226.21 61.8C1226.61 62.2 1226.74 62.7333 1226.61 63.4L1210.01 198.6C1209.88 199.267 1209.54 199.867 1209.01 200.4C1208.61 200.8 1208.08 201 1207.41 201H1179.81C1179.14 201 1178.61 200.8 1178.21 200.4C1177.81 199.867 1177.68 199.267 1177.81 198.6L1187.61 118.2C1187.74 117.667 1187.68 117.4 1187.41 117.4C1187.14 117.4 1186.88 117.6 1186.61 118L1166.41 145.6C1165.88 146.667 1164.94 147.2 1163.61 147.2H1149.81C1148.61 147.2 1147.74 146.667 1147.21 145.6L1133.81 117.8C1133.68 117.4 1133.48 117.2 1133.21 117.2C1132.94 117.2 1132.74 117.467 1132.61 118L1122.81 198.6C1122.68 199.267 1122.34 199.867 1121.81 200.4C1121.41 200.8 1120.88 201 1120.21 201H1092.61C1091.94 201 1091.41 200.8 1091.01 200.4C1090.61 199.867 1090.48 199.267 1090.61 198.6L1107.21 63.4C1107.21 62.7333 1107.48 62.2 1108.01 61.8C1108.54 61.2667 1109.14 61 1109.81 61H1137.01C1138.34 61 1139.21 61.5333 1139.61 62.6L1161.21 106.2C1161.61 107 1162.01 107 1162.41 106.2L1194.41 62.6ZM1339.28 87C1339.15 87.6667 1338.81 88.2667 1338.28 88.8C1337.88 89.2 1337.35 89.4 1336.68 89.4H1275.88C1275.08 89.4 1274.68 89.7333 1274.68 90.4L1271.68 115C1271.68 115.667 1271.95 116 1272.48 116H1311.48C1312.15 116 1312.68 116.267 1313.08 116.8C1313.48 117.2 1313.61 117.733 1313.48 118.4L1310.68 141.8C1310.55 142.467 1310.21 143.067 1309.68 143.6C1309.28 144 1308.75 144.2 1308.08 144.2H1269.08C1268.55 144.2 1268.15 144.533 1267.88 145.2L1264.68 171.6C1264.68 172.267 1264.95 172.6 1265.48 172.6H1326.48C1327.15 172.6 1327.68 172.867 1328.08 173.4C1328.48 173.8 1328.61 174.333 1328.48 175L1325.68 198.6C1325.55 199.267 1325.21 199.867 1324.68 200.4C1324.28 200.8 1323.75 201 1323.08 201H1231.28C1230.61 201 1230.08 200.8 1229.68 200.4C1229.28 199.867 1229.15 199.267 1229.28 198.6L1245.88 63.4C1245.88 62.7333 1246.15 62.2 1246.68 61.8C1247.21 61.2667 1247.81 61 1248.48 61H1340.28C1340.95 61 1341.48 61.2667 1341.88 61.8C1342.28 62.2 1342.41 62.7333 1342.28 63.4L1339.28 87Z" fill="white"/>
<path d="M907.486 71.2L906.793 71.9206L906.799 71.927L907.486 71.2ZM917.886 105.6L918.878 105.722L918.881 105.703L918.882 105.683L917.886 105.6ZM909.286 128.6L910.105 129.173L910.105 129.173L909.286 128.6ZM891.086 144L890.652 143.099L890.645 143.102L891.086 144ZM841.486 150.4L840.557 150.029L840.509 150.15L840.493 150.281L841.486 150.4ZM835.686 198.6L836.667 198.796L836.674 198.758L836.679 198.719L835.686 198.6ZM834.686 200.4L835.393 201.107L835.393 201.107L834.686 200.4ZM803.886 200.4L803.086 201L803.129 201.057L803.179 201.107L803.886 200.4ZM803.486 198.6L804.467 198.796L804.474 198.759L804.478 198.722L803.486 198.6ZM820.086 63.4L819.105 63.2039L819.098 63.2408L819.093 63.2781L820.086 63.4ZM820.886 61.8L820.179 61.0929L820.179 61.0929L820.886 61.8ZM881.486 93.4L880.796 94.1241L880.814 94.1409L880.832 94.1568L881.486 93.4ZM848.886 90.4L847.957 90.0286L847.909 90.1504L847.893 90.2806L848.886 90.4ZM845.086 122L846.014 122.371L846.063 122.25L846.079 122.119L845.086 122ZM878.686 62C890.625 62 899.954 65.3401 906.793 71.9206L908.179 70.4794C900.884 63.4598 891.013 60 878.686 60V62ZM906.799 71.927C913.765 78.5055 917.286 87.4238 917.286 98.8H919.286C919.286 86.9762 915.607 77.4944 908.173 70.473L906.799 71.927ZM917.286 98.8C917.286 100.087 917.156 102.317 916.889 105.517L918.882 105.683C919.149 102.483 919.286 100.179 919.286 98.8H917.286ZM916.893 105.478C915.845 113.994 913.033 121.504 908.467 128.027L910.105 129.173C914.872 122.363 917.793 114.539 918.878 105.722L916.893 105.478ZM908.467 128.027C903.9 134.55 897.967 139.572 890.652 143.099L891.52 144.901C899.138 141.228 905.338 135.983 910.105 129.173L908.467 128.027ZM890.645 143.102C883.466 146.627 875.353 148.4 866.286 148.4V150.4C875.619 150.4 884.04 148.573 891.527 144.898L890.645 143.102ZM866.286 148.4H842.686V150.4H866.286V148.4ZM842.686 148.4C842.192 148.4 841.73 148.561 841.346 148.882C840.979 149.187 840.73 149.597 840.557 150.029L842.414 150.771C842.508 150.537 842.593 150.446 842.626 150.418C842.64 150.406 842.647 150.404 842.647 150.404C842.648 150.404 842.658 150.4 842.686 150.4V148.4ZM840.493 150.281L834.693 198.481L836.679 198.719L842.479 150.519L840.493 150.281ZM834.705 198.404C834.615 198.856 834.388 199.283 833.979 199.693L835.393 201.107C836.05 200.45 836.49 199.677 836.667 198.796L834.705 198.404ZM833.979 199.693C833.8 199.872 833.538 200 833.086 200V202C833.967 202 834.772 201.728 835.393 201.107L833.979 199.693ZM833.086 200H805.486V202H833.086V200ZM805.486 200C805.034 200 804.772 199.872 804.593 199.693L803.179 201.107C803.8 201.728 804.605 202 805.486 202V200ZM804.686 199.8C804.46 199.499 804.388 199.19 804.467 198.796L802.505 198.404C802.317 199.343 802.511 200.234 803.086 201L804.686 199.8ZM804.478 198.722L821.078 63.5219L819.093 63.2781L802.493 198.478L804.478 198.722ZM821.067 63.5961C821.169 63.0834 821.359 62.7414 821.593 62.5071L820.179 61.0929C819.613 61.6586 819.269 62.3833 819.105 63.2039L821.067 63.5961ZM821.593 62.5071C821.966 62.1345 822.32 62 822.686 62V60C821.718 60 820.873 60.3989 820.179 61.0929L821.593 62.5071ZM822.686 62H878.686V60H822.686V62ZM865.886 124C871.975 124 877.035 122.124 880.98 118.32L879.592 116.88C876.07 120.276 871.53 122 865.886 122V124ZM880.98 118.32C884.93 114.511 886.886 109.573 886.886 103.6H884.886C884.886 109.093 883.108 113.489 879.592 116.88L880.98 118.32ZM886.886 103.6C886.886 99.0757 885.317 95.387 882.14 92.6432L880.832 94.1568C883.522 96.4796 884.886 99.591 884.886 103.6H886.886ZM882.176 92.6759C879.147 89.7918 875.078 88.4 870.086 88.4V90.4C874.694 90.4 878.225 91.6749 880.796 94.1241L882.176 92.6759ZM870.086 88.4H850.086V90.4H870.086V88.4ZM850.086 88.4C849.592 88.4 849.13 88.5614 848.746 88.8818C848.379 89.1874 848.13 89.5966 847.957 90.0286L849.814 90.7714C849.908 90.5367 849.993 90.446 850.026 90.4182C850.04 90.4063 850.047 90.4044 850.047 90.4042C850.048 90.404 850.058 90.4 850.086 90.4V88.4ZM847.893 90.2806L844.093 121.881L846.079 122.119L849.879 90.5194L847.893 90.2806ZM844.157 121.629C843.985 122.06 843.823 122.772 844.305 123.375C844.742 123.92 845.428 124 845.886 124V122C845.82 122 845.77 121.997 845.735 121.992C845.699 121.988 845.684 121.983 845.684 121.983C845.684 121.983 845.707 121.99 845.741 122.011C845.777 122.034 845.823 122.07 845.867 122.125C845.965 122.249 845.986 122.376 845.986 122.437C845.986 122.482 845.976 122.467 846.014 122.371L844.157 121.629ZM845.886 124H865.886V122H845.886V124ZM989.902 199.2L988.945 199.491L988.949 199.504L988.953 199.516L989.902 199.2ZM973.702 146L974.658 145.709L974.634 145.628L974.596 145.553L973.702 146ZM958.702 146.2L959.694 146.321L959.702 146.261V146.2H958.702ZM952.302 198.6L953.282 198.796L953.29 198.759L953.294 198.721L952.302 198.6ZM951.302 200.4L950.594 199.693L950.594 199.693L951.302 200.4ZM920.502 200.4L919.702 201L919.744 201.057L919.794 201.107L920.502 200.4ZM920.102 198.6L921.082 198.796L921.09 198.759L921.094 198.722L920.102 198.6ZM936.702 63.4L937.694 63.5219L937.702 63.4612V63.4H936.702ZM937.502 61.8L938.102 62.6L938.158 62.5573L938.209 62.5071L937.502 61.8ZM1024.7 71L1025.4 70.2859L1024.7 71ZM1034.5 104.4L1035.49 104.533L1035.5 104.512L1035.5 104.491L1034.5 104.4ZM1025.1 127.6L1024.31 126.987L1024.31 126.987L1025.1 127.6ZM1005.5 141.8L1005.16 140.861L1005.14 140.866L1005.13 140.872L1005.5 141.8ZM1004.9 143.2L1005.85 142.877L1005.84 142.852L1005.83 142.829L1004.9 143.2ZM1023.7 198.2L1022.76 198.523L1022.78 198.587L1022.81 198.647L1023.7 198.2ZM965.502 90.4L966.494 90.5189L966.502 90.4596V90.4H965.502ZM962.102 118.8L963.03 119.171L963.079 119.049L963.094 118.919L962.102 118.8ZM997.302 115L996.623 114.265L996.616 114.272L996.609 114.279L997.302 115ZM998.502 93L997.814 93.7259L997.833 93.7445L997.854 93.7619L998.502 93ZM992.502 200C991.984 200 991.647 199.885 991.421 199.728C991.199 199.574 990.996 199.321 990.85 198.884L988.953 199.516C989.207 200.279 989.638 200.926 990.282 201.372C990.922 201.815 991.685 202 992.502 202V200ZM990.858 198.909L974.658 145.709L972.745 146.291L988.945 199.491L990.858 198.909ZM974.596 145.553C974.403 145.167 974.132 144.818 973.756 144.568C973.374 144.313 972.943 144.2 972.502 144.2V146.2C972.593 146.2 972.629 146.22 972.647 146.232C972.671 146.248 972.733 146.299 972.807 146.447L974.596 145.553ZM972.502 144.2H959.702V146.2H972.502V144.2ZM959.702 144.2C959.214 144.2 958.665 144.323 958.244 144.743C957.824 145.163 957.702 145.713 957.702 146.2H959.702C959.702 146.158 959.704 146.127 959.707 146.107C959.71 146.087 959.713 146.078 959.713 146.079C959.712 146.08 959.709 146.09 959.7 146.105C959.695 146.113 959.689 146.121 959.682 146.13C959.675 146.139 959.667 146.148 959.659 146.157C959.65 146.166 959.641 146.174 959.632 146.181C959.623 146.188 959.614 146.194 959.607 146.198C959.591 146.207 959.581 146.211 959.58 146.211C959.58 146.211 959.588 146.208 959.609 146.206C959.629 146.203 959.66 146.2 959.702 146.2V144.2ZM957.709 146.079L951.309 198.479L953.294 198.721L959.694 146.321L957.709 146.079ZM951.321 198.404C951.231 198.856 951.004 199.283 950.594 199.693L952.009 201.107C952.666 200.45 953.106 199.677 953.282 198.796L951.321 198.404ZM950.594 199.693C950.415 199.872 950.154 200 949.702 200V202C950.582 202 951.388 201.728 952.009 201.107L950.594 199.693ZM949.702 200H922.102V202H949.702V200ZM922.102 200C921.649 200 921.388 199.872 921.209 199.693L919.794 201.107C920.415 201.728 921.221 202 922.102 202V200ZM921.302 199.8C921.076 199.499 921.003 199.19 921.082 198.796L919.121 198.404C918.933 199.343 919.127 200.234 919.702 201L921.302 199.8ZM921.094 198.722L937.694 63.5219L935.709 63.2781L919.109 198.478L921.094 198.722ZM937.702 63.4C937.702 63.0481 937.82 62.8111 938.102 62.6L936.902 61C936.116 61.5889 935.702 62.4186 935.702 63.4H937.702ZM938.209 62.5071C938.581 62.1345 938.936 62 939.302 62V60C938.334 60 937.488 60.3989 936.794 61.0929L938.209 62.5071ZM939.302 62H996.902V60H939.302V62ZM996.902 62C1008.44 62 1017.43 65.2712 1024 71.7141L1025.4 70.2859C1018.37 63.3954 1008.83 60 996.902 60V62ZM1024 71.7141C1030.57 78.1574 1033.9 86.8803 1033.9 98H1035.9C1035.9 86.453 1032.43 77.176 1025.4 70.2859L1024 71.7141ZM1033.9 98C1033.9 99.2846 1033.77 101.379 1033.51 104.309L1035.5 104.491C1035.76 101.554 1035.9 99.3821 1035.9 98H1033.9ZM1033.51 104.267C1032.33 113.042 1029.26 120.606 1024.31 126.987L1025.89 128.213C1031.08 121.528 1034.27 113.625 1035.49 104.533L1033.51 104.267ZM1024.31 126.987C1019.36 133.367 1012.99 137.99 1005.16 140.861L1005.85 142.739C1014.02 139.743 1020.71 134.899 1025.89 128.213L1024.31 126.987ZM1005.13 140.872C1004.65 141.062 1004.17 141.393 1003.93 141.956C1003.69 142.519 1003.78 143.095 1003.97 143.571L1005.83 142.829C1005.79 142.737 1005.79 142.689 1005.79 142.679C1005.79 142.675 1005.79 142.68 1005.79 142.694C1005.78 142.707 1005.78 142.725 1005.77 142.744C1005.76 142.763 1005.75 142.778 1005.74 142.789C1005.74 142.8 1005.73 142.804 1005.74 142.801C1005.74 142.794 1005.78 142.765 1005.87 142.728L1005.13 140.872ZM1003.96 143.523L1022.76 198.523L1024.65 197.877L1005.85 142.877L1003.96 143.523ZM1022.81 198.647C1022.85 198.736 1022.9 198.905 1022.9 199.2H1024.9C1024.9 198.695 1024.82 198.197 1024.6 197.753L1022.81 198.647ZM1022.9 199.2C1022.9 199.556 1022.8 199.678 1022.7 199.75C1022.55 199.863 1022.21 200 1021.5 200V202C1022.4 202 1023.25 201.837 1023.9 201.35C1024.61 200.822 1024.9 200.044 1024.9 199.2H1022.9ZM1021.5 200H992.502V202H1021.5V200ZM966.702 88.4C966.187 88.4 965.615 88.5034 965.161 88.8818C964.672 89.2893 964.502 89.8597 964.502 90.4H966.502C966.502 90.3313 966.512 90.3163 966.505 90.3339C966.496 90.3576 966.474 90.3915 966.442 90.4182C966.414 90.4417 966.404 90.437 966.444 90.426C966.486 90.4143 966.568 90.4 966.702 90.4V88.4ZM964.509 90.2811L961.109 118.681L963.094 118.919L966.494 90.5189L964.509 90.2811ZM961.173 118.429C961.001 118.86 960.839 119.572 961.321 120.175C961.757 120.72 962.444 120.8 962.902 120.8V118.8C962.835 118.8 962.786 118.797 962.751 118.792C962.715 118.788 962.7 118.783 962.7 118.783C962.7 118.783 962.722 118.79 962.757 118.811C962.792 118.834 962.838 118.87 962.882 118.925C962.981 119.049 963.002 119.176 963.002 119.237C963.002 119.282 962.992 119.267 963.03 119.171L961.173 118.429ZM962.902 120.8H984.502V118.8H962.902V120.8ZM984.502 120.8C989.925 120.8 994.451 119.123 997.994 115.721L996.609 114.279C993.486 117.277 989.479 118.8 984.502 118.8V120.8ZM997.98 115.735C1001.67 112.325 1003.5 107.847 1003.5 102.4H1001.5C1001.5 107.353 999.863 111.275 996.623 114.265L997.98 115.735ZM1003.5 102.4C1003.5 98.1534 1002.07 94.7231 999.149 92.2381L997.854 93.7619C1000.26 95.8103 1001.5 98.6466 1001.5 102.4H1003.5ZM999.189 92.274C996.425 89.6553 992.688 88.4 988.102 88.4V90.4C992.315 90.4 995.511 91.5446 997.814 93.7259L999.189 92.274ZM988.102 88.4H966.702V90.4H988.102V88.4ZM1039.64 200.4L1038.84 201L1038.88 201.057L1038.94 201.107L1039.64 200.4ZM1039.24 198.6L1040.22 198.796L1040.23 198.759L1040.23 198.722L1039.24 198.6ZM1055.84 63.4L1056.83 63.5219L1056.84 63.4612V63.4H1055.84ZM1056.64 61.8L1057.24 62.6L1057.3 62.5573L1057.35 62.5071L1056.64 61.8ZM1088.04 63.4L1089.03 63.5219L1089.04 63.4612V63.4H1088.04ZM1071.44 198.6L1072.42 198.796L1072.43 198.759L1072.43 198.722L1071.44 198.6ZM1070.44 200.4L1069.74 199.693L1069.74 199.693L1070.44 200.4ZM1041.24 200C1040.79 200 1040.53 199.872 1040.35 199.693L1038.94 201.107C1039.56 201.728 1040.36 202 1041.24 202V200ZM1040.44 199.8C1040.22 199.499 1040.14 199.19 1040.22 198.796L1038.26 198.404C1038.07 199.343 1038.27 200.234 1038.84 201L1040.44 199.8ZM1040.23 198.722L1056.83 63.5219L1054.85 63.2781L1038.25 198.478L1040.23 198.722ZM1056.84 63.4C1056.84 63.0481 1056.96 62.8111 1057.24 62.6L1056.04 61C1055.26 61.5889 1054.84 62.4186 1054.84 63.4H1056.84ZM1057.35 62.5071C1057.72 62.1345 1058.08 62 1058.44 62V60C1057.47 60 1056.63 60.3989 1055.94 61.0929L1057.35 62.5071ZM1058.44 62H1085.84V60H1058.44V62ZM1085.84 62C1086.4 62 1086.64 62.1475 1086.76 62.2757C1086.89 62.4204 1087.04 62.7336 1087.04 63.4H1089.04C1089.04 62.4664 1088.83 61.5796 1088.23 60.9243C1087.61 60.2525 1086.75 60 1085.84 60V62ZM1087.05 63.2781L1070.45 198.478L1072.43 198.722L1089.03 63.5219L1087.05 63.2781ZM1070.46 198.404C1070.37 198.856 1070.14 199.283 1069.74 199.693L1071.15 201.107C1071.81 200.45 1072.25 199.677 1072.42 198.796L1070.46 198.404ZM1069.74 199.693C1069.56 199.872 1069.29 200 1068.84 200V202C1069.72 202 1070.53 201.728 1071.15 201.107L1069.74 199.693ZM1068.84 200H1041.24V202H1068.84V200ZM1194.41 62.6L1195.22 63.1917L1195.27 63.1232L1195.3 63.0472L1194.41 62.6ZM1226.21 61.8L1225.41 62.4L1225.45 62.4568L1225.5 62.5071L1226.21 61.8ZM1226.61 63.4L1225.63 63.2039L1225.62 63.2408L1225.62 63.2781L1226.61 63.4ZM1210.01 198.6L1210.99 198.796L1211 198.759L1211 198.722L1210.01 198.6ZM1209.01 200.4L1209.72 201.107L1209.72 201.107L1209.01 200.4ZM1178.21 200.4L1177.41 201L1177.45 201.057L1177.5 201.107L1178.21 200.4ZM1177.81 198.6L1178.79 198.796L1178.8 198.759L1178.8 198.721L1177.81 198.6ZM1187.61 118.2L1186.64 117.957L1186.62 118.018L1186.62 118.079L1187.61 118.2ZM1186.61 118L1187.42 118.591L1187.43 118.573L1187.44 118.555L1186.61 118ZM1166.41 145.6L1165.6 145.009L1165.55 145.077L1165.51 145.153L1166.41 145.6ZM1147.21 145.6L1146.31 146.034L1146.31 146.041L1146.31 146.047L1147.21 145.6ZM1133.81 117.8L1132.86 118.116L1132.88 118.177L1132.91 118.234L1133.81 117.8ZM1132.61 118L1131.64 117.757L1131.62 117.818L1131.62 117.879L1132.61 118ZM1122.81 198.6L1123.79 198.796L1123.8 198.759L1123.8 198.721L1122.81 198.6ZM1121.81 200.4L1121.1 199.693L1121.1 199.693L1121.81 200.4ZM1091.01 200.4L1090.21 201L1090.25 201.057L1090.3 201.107L1091.01 200.4ZM1090.61 198.6L1091.59 198.796L1091.6 198.759L1091.6 198.722L1090.61 198.6ZM1107.21 63.4L1108.2 63.5219L1108.21 63.4612V63.4H1107.21ZM1108.01 61.8L1108.61 62.6L1108.67 62.5573L1108.72 62.5071L1108.01 61.8ZM1139.61 62.6L1138.67 62.9511L1138.69 62.9985L1138.71 63.0439L1139.61 62.6ZM1161.21 106.2L1160.31 106.644L1160.31 106.647L1161.21 106.2ZM1162.41 106.2L1161.6 105.608L1161.55 105.677L1161.51 105.753L1162.41 106.2ZM1195.3 63.0472C1195.49 62.6704 1195.73 62.4264 1196.01 62.2682C1196.29 62.1064 1196.68 62 1197.21 62V60C1196.41 60 1195.66 60.1603 1195.01 60.5317C1194.36 60.9069 1193.86 61.4629 1193.51 62.1528L1195.3 63.0472ZM1197.21 62H1224.61V60H1197.21V62ZM1224.61 62C1224.96 62 1225.2 62.1185 1225.41 62.4L1227.01 61.2C1226.42 60.4149 1225.59 60 1224.61 60V62ZM1225.5 62.5071C1225.62 62.6207 1225.71 62.7891 1225.63 63.2039L1227.59 63.5961C1227.77 62.6776 1227.6 61.7793 1226.92 61.0929L1225.5 62.5071ZM1225.62 63.2781L1209.02 198.478L1211 198.722L1227.6 63.5219L1225.62 63.2781ZM1209.03 198.404C1208.94 198.856 1208.71 199.283 1208.3 199.693L1209.72 201.107C1210.37 200.45 1210.81 199.677 1210.99 198.796L1209.03 198.404ZM1208.3 199.693C1208.12 199.872 1207.86 200 1207.41 200V202C1208.29 202 1209.1 201.728 1209.72 201.107L1208.3 199.693ZM1207.41 200H1179.81V202H1207.41V200ZM1179.81 200C1179.36 200 1179.1 199.872 1178.92 199.693L1177.5 201.107C1178.12 201.728 1178.93 202 1179.81 202V200ZM1179.01 199.8C1178.78 199.499 1178.71 199.19 1178.79 198.796L1176.83 198.404C1176.64 199.343 1176.83 200.234 1177.41 201L1179.01 199.8ZM1178.8 198.721L1188.6 118.321L1186.62 118.079L1176.82 198.479L1178.8 198.721ZM1188.58 118.443C1188.65 118.146 1188.73 117.742 1188.63 117.357C1188.58 117.14 1188.45 116.874 1188.2 116.669C1187.94 116.462 1187.65 116.4 1187.41 116.4V118.4C1187.31 118.4 1187.12 118.372 1186.95 118.231C1186.77 118.092 1186.71 117.927 1186.69 117.843C1186.67 117.766 1186.68 117.731 1186.68 117.767C1186.67 117.798 1186.66 117.859 1186.64 117.957L1188.58 118.443ZM1187.41 116.4C1186.61 116.4 1186.08 116.985 1185.78 117.445L1187.44 118.555C1187.49 118.486 1187.53 118.436 1187.56 118.402C1187.59 118.367 1187.61 118.353 1187.61 118.35C1187.61 118.348 1187.6 118.36 1187.56 118.374C1187.52 118.388 1187.47 118.4 1187.41 118.4V116.4ZM1185.8 117.409L1165.6 145.009L1167.22 146.191L1187.42 118.591L1185.8 117.409ZM1165.51 145.153C1165.33 145.53 1165.09 145.774 1164.81 145.932C1164.53 146.094 1164.14 146.2 1163.61 146.2V148.2C1164.41 148.2 1165.16 148.04 1165.81 147.668C1166.46 147.293 1166.96 146.737 1167.3 146.047L1165.51 145.153ZM1163.61 146.2H1149.81V148.2H1163.61V146.2ZM1149.81 146.2C1149.36 146.2 1149.03 146.102 1148.78 145.948C1148.53 145.795 1148.3 145.549 1148.1 145.153L1146.31 146.047C1146.65 146.718 1147.12 147.272 1147.74 147.652C1148.35 148.032 1149.06 148.2 1149.81 148.2V146.2ZM1148.11 145.166L1134.71 117.366L1132.91 118.234L1146.31 146.034L1148.11 145.166ZM1134.76 117.484C1134.58 116.953 1134.14 116.2 1133.21 116.2V118.2C1133.15 118.2 1133.08 118.188 1133 118.157C1132.93 118.126 1132.88 118.087 1132.85 118.057C1132.8 118.007 1132.82 117.997 1132.86 118.116L1134.76 117.484ZM1133.21 116.2C1132.68 116.2 1132.3 116.485 1132.06 116.8C1131.84 117.087 1131.72 117.435 1131.64 117.757L1133.58 118.243C1133.6 118.145 1133.63 118.078 1133.64 118.035C1133.66 117.99 1133.67 117.984 1133.66 118C1133.65 118.017 1133.6 118.07 1133.52 118.118C1133.43 118.171 1133.32 118.2 1133.21 118.2V116.2ZM1131.62 117.879L1121.82 198.479L1123.8 198.721L1133.6 118.121L1131.62 117.879ZM1121.83 198.404C1121.74 198.856 1121.51 199.283 1121.1 199.693L1122.52 201.107C1123.17 200.45 1123.61 199.677 1123.79 198.796L1121.83 198.404ZM1121.1 199.693C1120.92 199.872 1120.66 200 1120.21 200V202C1121.09 202 1121.9 201.728 1122.52 201.107L1121.1 199.693ZM1120.21 200H1092.61V202H1120.21V200ZM1092.61 200C1092.16 200 1091.9 199.872 1091.72 199.693L1090.3 201.107C1090.92 201.728 1091.73 202 1092.61 202V200ZM1091.81 199.8C1091.58 199.499 1091.51 199.19 1091.59 198.796L1089.63 198.404C1089.44 199.343 1089.63 200.234 1090.21 201L1091.81 199.8ZM1091.6 198.722L1108.2 63.5219L1106.22 63.2781L1089.62 198.478L1091.6 198.722ZM1108.21 63.4C1108.21 63.0481 1108.33 62.8111 1108.61 62.6L1107.41 61C1106.62 61.5889 1106.21 62.4186 1106.21 63.4H1108.21ZM1108.72 62.5071C1109.09 62.1345 1109.44 62 1109.81 62V60C1108.84 60 1108 60.3989 1107.3 61.0929L1108.72 62.5071ZM1109.81 62H1137.01V60H1109.81V62ZM1137.01 62C1137.55 62 1137.9 62.1077 1138.14 62.2516C1138.36 62.388 1138.54 62.5996 1138.67 62.9511L1140.55 62.2489C1140.28 61.5337 1139.83 60.9453 1139.18 60.5483C1138.55 60.1589 1137.8 60 1137.01 60V62ZM1138.71 63.0439L1160.31 106.644L1162.11 105.756L1140.51 62.1561L1138.71 63.0439ZM1160.31 106.647C1160.44 106.894 1160.6 107.15 1160.8 107.357C1161.01 107.566 1161.35 107.8 1161.81 107.8C1162.27 107.8 1162.61 107.566 1162.82 107.357C1163.02 107.15 1163.18 106.894 1163.3 106.647L1161.51 105.753C1161.44 105.906 1161.4 105.95 1161.4 105.943C1161.41 105.934 1161.55 105.8 1161.81 105.8C1162.07 105.8 1162.21 105.934 1162.22 105.943C1162.22 105.95 1162.18 105.906 1162.1 105.753L1160.31 106.647ZM1163.22 106.792L1195.22 63.1917L1193.6 62.0083L1161.6 105.608L1163.22 106.792ZM1339.28 87L1340.26 87.1961L1340.27 87.1613L1340.27 87.1261L1339.28 87ZM1338.28 88.8L1337.57 88.0929L1337.57 88.0929L1338.28 88.8ZM1274.68 90.4L1275.67 90.521L1275.68 90.4607V90.4H1274.68ZM1271.68 115L1270.69 114.879L1270.68 114.939V115H1271.68ZM1313.08 116.8L1312.28 117.4L1312.32 117.457L1312.37 117.507L1313.08 116.8ZM1313.48 118.4L1312.5 118.204L1312.49 118.242L1312.49 118.281L1313.48 118.4ZM1310.68 141.8L1311.66 141.996L1311.67 141.958L1311.67 141.919L1310.68 141.8ZM1309.68 143.6L1308.97 142.893L1309.68 143.6ZM1267.88 145.2L1266.95 144.829L1266.9 144.95L1266.89 145.08L1267.88 145.2ZM1264.68 171.6L1263.69 171.48L1263.68 171.54V171.6H1264.68ZM1328.08 173.4L1327.28 174L1327.32 174.057L1327.37 174.107L1328.08 173.4ZM1328.48 175L1327.5 174.804L1327.49 174.843L1327.49 174.882L1328.48 175ZM1325.68 198.6L1326.66 198.796L1326.67 198.757L1326.67 198.718L1325.68 198.6ZM1324.68 200.4L1325.39 201.107L1325.39 201.107L1324.68 200.4ZM1229.68 200.4L1228.88 201L1228.92 201.057L1228.97 201.107L1229.68 200.4ZM1229.28 198.6L1230.26 198.796L1230.27 198.759L1230.27 198.722L1229.28 198.6ZM1245.88 63.4L1246.87 63.5219L1246.88 63.4612V63.4H1245.88ZM1246.68 61.8L1247.28 62.6L1247.34 62.5573L1247.39 62.5071L1246.68 61.8ZM1341.88 61.8L1341.08 62.4L1341.12 62.4568L1341.17 62.5071L1341.88 61.8ZM1342.28 63.4L1341.3 63.2039L1341.29 63.2387L1341.29 63.2739L1342.28 63.4ZM1338.3 86.8039C1338.21 87.2561 1337.98 87.6833 1337.57 88.0929L1338.99 89.5071C1339.65 88.85 1340.09 88.0773 1340.26 87.1961L1338.3 86.8039ZM1337.57 88.0929C1337.39 88.2722 1337.13 88.4 1336.68 88.4V90.4C1337.56 90.4 1338.37 90.1278 1338.99 89.5071L1337.57 88.0929ZM1336.68 88.4H1275.88V90.4H1336.68V88.4ZM1275.88 88.4C1275.37 88.4 1274.8 88.5034 1274.34 88.8818C1273.85 89.2893 1273.68 89.8597 1273.68 90.4H1275.68C1275.68 90.3313 1275.69 90.3163 1275.68 90.3339C1275.68 90.3576 1275.65 90.3915 1275.62 90.4182C1275.59 90.4417 1275.58 90.437 1275.62 90.426C1275.67 90.4143 1275.75 90.4 1275.88 90.4V88.4ZM1273.69 90.2789L1270.69 114.879L1272.67 115.121L1275.67 90.521L1273.69 90.2789ZM1270.68 115C1270.68 115.44 1270.76 115.955 1271.1 116.375C1271.47 116.837 1271.99 117 1272.48 117V115C1272.45 115 1272.47 114.995 1272.52 115.014C1272.54 115.024 1272.57 115.039 1272.59 115.059C1272.62 115.08 1272.64 115.103 1272.66 115.125C1272.7 115.171 1272.7 115.199 1272.7 115.18C1272.69 115.159 1272.68 115.103 1272.68 115H1270.68ZM1272.48 117H1311.48V115H1272.48V117ZM1311.48 117C1311.83 117 1312.07 117.118 1312.28 117.4L1313.88 116.2C1313.29 115.415 1312.46 115 1311.48 115V117ZM1312.37 117.507C1312.49 117.621 1312.58 117.789 1312.5 118.204L1314.46 118.596C1314.65 117.678 1314.47 116.779 1313.79 116.093L1312.37 117.507ZM1312.49 118.281L1309.69 141.681L1311.67 141.919L1314.47 118.519L1312.49 118.281ZM1309.7 141.604C1309.61 142.056 1309.38 142.483 1308.97 142.893L1310.39 144.307C1311.05 143.65 1311.49 142.877 1311.66 141.996L1309.7 141.604ZM1308.97 142.893C1308.79 143.072 1308.53 143.2 1308.08 143.2V145.2C1308.96 145.2 1309.77 144.928 1310.39 144.307L1308.97 142.893ZM1308.08 143.2H1269.08V145.2H1308.08V143.2ZM1269.08 143.2C1268.59 143.2 1268.13 143.361 1267.74 143.682C1267.37 143.987 1267.13 144.397 1266.95 144.829L1268.81 145.571C1268.9 145.337 1268.99 145.246 1269.02 145.218C1269.04 145.206 1269.04 145.204 1269.04 145.204C1269.04 145.204 1269.05 145.2 1269.08 145.2V143.2ZM1266.89 145.08L1263.69 171.48L1265.67 171.72L1268.87 145.32L1266.89 145.08ZM1263.68 171.6C1263.68 172.04 1263.76 172.555 1264.1 172.975C1264.47 173.437 1264.99 173.6 1265.48 173.6V171.6C1265.45 171.6 1265.47 171.595 1265.52 171.614C1265.54 171.624 1265.57 171.639 1265.59 171.659C1265.62 171.68 1265.64 171.703 1265.66 171.725C1265.7 171.771 1265.7 171.799 1265.7 171.78C1265.69 171.759 1265.68 171.703 1265.68 171.6H1263.68ZM1265.48 173.6H1326.48V171.6H1265.48V173.6ZM1326.48 173.6C1326.83 173.6 1327.07 173.718 1327.28 174L1328.88 172.8C1328.29 172.015 1327.46 171.6 1326.48 171.6V173.6ZM1327.37 174.107C1327.49 174.221 1327.58 174.389 1327.5 174.804L1329.46 175.196C1329.65 174.278 1329.47 173.379 1328.79 172.693L1327.37 174.107ZM1327.49 174.882L1324.69 198.482L1326.67 198.718L1329.47 175.118L1327.49 174.882ZM1324.7 198.404C1324.61 198.856 1324.38 199.283 1323.97 199.693L1325.39 201.107C1326.05 200.45 1326.49 199.677 1326.66 198.796L1324.7 198.404ZM1323.97 199.693C1323.79 199.872 1323.53 200 1323.08 200V202C1323.96 202 1324.77 201.728 1325.39 201.107L1323.97 199.693ZM1323.08 200H1231.28V202H1323.08V200ZM1231.28 200C1230.83 200 1230.57 199.872 1230.39 199.693L1228.97 201.107C1229.59 201.728 1230.4 202 1231.28 202V200ZM1230.48 199.8C1230.26 199.499 1230.18 199.19 1230.26 198.796L1228.3 198.404C1228.11 199.343 1228.31 200.234 1228.88 201L1230.48 199.8ZM1230.27 198.722L1246.87 63.5219L1244.89 63.2781L1228.29 198.478L1230.27 198.722ZM1246.88 63.4C1246.88 63.0481 1247 62.8111 1247.28 62.6L1246.08 61C1245.3 61.5889 1244.88 62.4186 1244.88 63.4H1246.88ZM1247.39 62.5071C1247.76 62.1345 1248.12 62 1248.48 62V60C1247.51 60 1246.67 60.3989 1245.97 61.0929L1247.39 62.5071ZM1248.48 62H1340.28V60H1248.48V62ZM1340.28 62C1340.63 62 1340.87 62.1185 1341.08 62.4L1342.68 61.2C1342.09 60.4149 1341.26 60 1340.28 60V62ZM1341.17 62.5071C1341.29 62.6207 1341.38 62.7891 1341.3 63.2039L1343.26 63.5961C1343.45 62.6776 1343.27 61.7793 1342.59 61.0929L1341.17 62.5071ZM1341.29 63.2739L1338.29 86.8739L1340.27 87.1261L1343.27 63.5261L1341.29 63.2739Z" fill="black"/>
</svg>
