<svg width="546" height="146" viewBox="0 0 546 146" fill="none" xmlns="http://www.w3.org/2000/svg">
<path d="M78.6859 2.99999C90.8193 2.99999 100.419 6.39999 107.486 13.2C114.686 20 118.286 29.2 118.286 40.8C118.286 42.1333 118.153 44.4 117.886 47.6C116.819 56.2667 113.953 63.9333 109.286 70.6C104.619 77.2667 98.5526 82.4 91.0859 86C83.7526 89.6 75.4859 91.4 66.2859 91.4H42.6859C42.1526 91.4 41.7526 91.7333 41.4859 92.4L35.6859 140.6C35.5526 141.267 35.2193 141.867 34.6859 142.4C34.2859 142.8 33.7526 143 33.0859 143H5.48594C4.81927 143 4.28594 142.8 3.88594 142.4C3.48594 141.867 3.3526 141.267 3.48594 140.6L20.0859 5.4C20.2193 4.73333 20.4859 4.19999 20.8859 3.79999C21.4193 3.26666 22.0193 2.99999 22.6859 2.99999H78.6859ZM65.8859 65C71.7526 65 76.5526 63.2 80.2859 59.6C84.0193 56 85.8859 51.3333 85.8859 45.6C85.8859 41.3333 84.4193 37.9333 81.4859 35.4C78.6859 32.7333 74.8859 31.4 70.0859 31.4H50.0859C49.5526 31.4 49.1526 31.7333 48.8859 32.4L45.0859 64C44.8193 64.6667 45.0859 65 45.8859 65H65.8859ZM192.502 143C191.168 143 190.302 142.4 189.902 141.2L173.702 88C173.435 87.4667 173.035 87.2 172.502 87.2H159.702C159.035 87.2 158.702 87.5333 158.702 88.2L152.302 140.6C152.168 141.267 151.835 141.867 151.302 142.4C150.902 142.8 150.368 143 149.702 143H122.102C121.435 143 120.902 142.8 120.502 142.4C120.102 141.867 119.968 141.267 120.102 140.6L136.702 5.4C136.702 4.73333 136.968 4.19999 137.502 3.79999C138.035 3.26666 138.635 2.99999 139.302 2.99999H196.902C208.635 2.99999 217.902 6.33332 224.702 13C231.502 19.6667 234.902 28.6667 234.902 40C234.902 41.3333 234.768 43.4667 234.502 46.4C233.302 55.3333 230.168 63.0667 225.102 69.6C220.035 76.1333 213.502 80.8667 205.502 83.8C204.835 84.0667 204.635 84.5333 204.902 85.2L223.702 140.2C223.835 140.467 223.902 140.8 223.902 141.2C223.902 142.4 223.102 143 221.502 143H192.502ZM166.702 31.4C165.902 31.4 165.502 31.7333 165.502 32.4L162.102 60.8C161.835 61.4667 162.102 61.8 162.902 61.8H184.502C189.702 61.8 193.968 60.2 197.302 57C200.768 53.8 202.502 49.6 202.502 44.4C202.502 40.4 201.168 37.2667 198.502 35C195.968 32.6 192.502 31.4 188.102 31.4H166.702ZM241.242 143C240.576 143 240.042 142.8 239.642 142.4C239.242 141.867 239.109 141.267 239.242 140.6L255.842 5.4C255.842 4.73333 256.109 4.19999 256.642 3.79999C257.176 3.26666 257.776 2.99999 258.442 2.99999H285.842C287.309 2.99999 288.042 3.79999 288.042 5.4L271.442 140.6C271.309 141.267 270.976 141.867 270.442 142.4C270.042 142.8 269.509 143 268.842 143H241.242ZM394.409 4.59999C394.943 3.53332 395.876 2.99999 397.209 2.99999H424.609C425.276 2.99999 425.809 3.26666 426.209 3.79999C426.609 4.19999 426.743 4.73333 426.609 5.4L410.009 140.6C409.876 141.267 409.543 141.867 409.009 142.4C408.609 142.8 408.076 143 407.409 143H379.809C379.143 143 378.609 142.8 378.209 142.4C377.809 141.867 377.676 141.267 377.809 140.6L387.609 60.2C387.743 59.6667 387.676 59.4 387.409 59.4C387.143 59.4 386.876 59.6 386.609 60L366.409 87.6C365.876 88.6667 364.943 89.2 363.609 89.2H349.809C348.609 89.2 347.743 88.6667 347.209 87.6L333.809 59.8C333.676 59.4 333.476 59.2 333.209 59.2C332.943 59.2 332.743 59.4667 332.609 60L322.809 140.6C322.676 141.267 322.343 141.867 321.809 142.4C321.409 142.8 320.876 143 320.209 143H292.609C291.943 143 291.409 142.8 291.009 142.4C290.609 141.867 290.476 141.267 290.609 140.6L307.209 5.4C307.209 4.73333 307.476 4.19999 308.009 3.79999C308.543 3.26666 309.143 2.99999 309.809 2.99999H337.009C338.343 2.99999 339.209 3.53332 339.609 4.59999L361.209 48.2C361.609 49 362.009 49 362.409 48.2L394.409 4.59999ZM539.281 29C539.148 29.6667 538.815 30.2667 538.281 30.8C537.881 31.2 537.348 31.4 536.681 31.4H475.881C475.081 31.4 474.681 31.7333 474.681 32.4L471.681 57C471.681 57.6667 471.948 58 472.481 58H511.481C512.148 58 512.681 58.2667 513.081 58.8C513.481 59.2 513.615 59.7333 513.481 60.4L510.681 83.8C510.548 84.4667 510.215 85.0667 509.681 85.6C509.281 86 508.748 86.2 508.081 86.2H469.081C468.548 86.2 468.148 86.5333 467.881 87.2L464.681 113.6C464.681 114.267 464.948 114.6 465.481 114.6H526.481C527.148 114.6 527.681 114.867 528.081 115.4C528.481 115.8 528.615 116.333 528.481 117L525.681 140.6C525.548 141.267 525.215 141.867 524.681 142.4C524.281 142.8 523.748 143 523.081 143H431.281C430.615 143 430.081 142.8 429.681 142.4C429.281 141.867 429.148 141.267 429.281 140.6L445.881 5.4C445.881 4.73333 446.148 4.19999 446.681 3.79999C447.215 3.26666 447.815 2.99999 448.481 2.99999H540.281C540.948 2.99999 541.481 3.26666 541.881 3.79999C542.281 4.19999 542.415 4.73333 542.281 5.4L539.281 29Z" fill="white"/>
<path d="M107.486 13.2L105.406 15.3617L105.416 15.3714L105.426 15.381L107.486 13.2ZM117.886 47.6L120.863 47.9665L120.871 47.9079L120.876 47.8491L117.886 47.6ZM109.286 70.6L111.744 72.3204H111.744L109.286 70.6ZM91.0859 86L89.7831 83.2977L89.7735 83.3023L89.7639 83.307L91.0859 86ZM41.4859 92.4L38.7005 91.2858L38.5544 91.651L38.5074 92.0416L41.4859 92.4ZM35.6859 140.6L38.6277 141.188L38.6505 141.074L38.6645 140.958L35.6859 140.6ZM34.6859 142.4L36.8073 144.521L34.6859 142.4ZM3.88594 142.4L1.48594 144.2L1.61386 144.371L1.76462 144.521L3.88594 142.4ZM3.48594 140.6L6.42768 141.188L6.44982 141.078L6.46358 140.966L3.48594 140.6ZM20.0859 5.39999L17.1442 4.81165L17.1221 4.92234L17.1083 5.0344L20.0859 5.39999ZM20.8859 3.79999L18.7646 1.67867L18.7646 1.67868L20.8859 3.79999ZM81.4859 35.4L79.417 37.5724L79.4698 37.6227L79.5251 37.6705L81.4859 35.4ZM48.8859 32.4L46.1005 31.2858L45.9544 31.6512L45.9074 32.0418L48.8859 32.4ZM45.0859 64L47.8714 65.1142L48.0175 64.7488L48.0645 64.3582L45.0859 64ZM78.6859 5.99999C90.2375 5.99999 99.0237 9.22044 105.406 15.3617L109.566 11.0383C101.815 3.57954 91.4011 -7.62939e-06 78.6859 -7.62939e-06V5.99999ZM105.426 15.381C111.923 21.5167 115.286 29.8715 115.286 40.8H121.286C121.286 28.5285 117.449 18.4833 109.546 11.019L105.426 15.381ZM115.286 40.8C115.286 41.9956 115.163 44.151 114.896 47.3509L120.876 47.8491C121.142 44.649 121.286 42.2711 121.286 40.8H115.286ZM114.908 47.2335C113.897 55.4497 111.193 62.6441 106.828 68.8796L111.744 72.3204C116.712 65.2226 119.741 57.0836 120.863 47.9665L114.908 47.2335ZM106.828 68.8796C102.462 75.1174 96.7961 79.9164 89.7831 83.2977L92.3888 88.7023C100.309 84.8836 106.777 79.4159 111.744 72.3204L106.828 68.8796ZM89.7639 83.307C82.8913 86.6808 75.0859 88.4 66.2859 88.4V94.4C75.886 94.4 84.6139 92.5192 92.408 88.693L89.7639 83.307ZM66.2859 88.4H42.6859V94.4H66.2859V88.4ZM42.6859 88.4C41.7361 88.4 40.8186 88.7176 40.0654 89.3453C39.3653 89.9288 38.9522 90.6566 38.7005 91.2858L44.2714 93.5142C44.2863 93.4768 44.2066 93.7046 43.9065 93.9547C43.5532 94.249 43.1025 94.4 42.6859 94.4V88.4ZM38.5074 92.0416L32.7074 140.242L38.6645 140.958L44.4645 92.7584L38.5074 92.0416ZM32.7442 140.012C32.7396 140.035 32.7268 140.117 32.5646 140.279L36.8073 144.521C37.7118 143.617 38.3657 142.498 38.6277 141.188L32.7442 140.012ZM32.5646 140.279C32.6696 140.174 32.8011 140.09 32.9326 140.041C33.0548 139.995 33.1197 140 33.0859 140V146C34.3954 146 35.7451 145.584 36.8073 144.521L32.5646 140.279ZM33.0859 140H5.48594V146H33.0859V140ZM5.48594 140C5.45219 140 5.51708 139.995 5.63931 140.041C5.77076 140.09 5.90228 140.174 6.00726 140.279L1.76462 144.521C2.82682 145.584 4.17651 146 5.48594 146V140ZM6.28593 140.6C6.31986 140.645 6.38104 140.749 6.4145 140.899C6.44761 141.048 6.43417 141.156 6.42768 141.188L0.544197 140.012C0.247261 141.496 0.562366 142.969 1.48594 144.2L6.28593 140.6ZM6.46358 140.966L23.0636 5.76559L17.1083 5.0344L0.508297 140.234L6.46358 140.966ZM23.0277 5.98835C23.0492 5.88063 23.0704 5.83918 23.0692 5.84163C23.0686 5.8429 23.0634 5.85293 23.0521 5.8687C23.0408 5.88464 23.0257 5.90286 23.0073 5.9213L18.7646 1.67868C17.8676 2.57572 17.3699 3.68312 17.1442 4.81165L23.0277 5.98835ZM23.0073 5.92131C23.0518 5.87675 23.037 5.90471 22.9544 5.94143C22.9144 5.95918 22.8675 5.97489 22.8165 5.98564C22.7656 5.99636 22.7207 5.99999 22.6859 5.99999V-7.62939e-06C21.1165 -7.62939e-06 19.78 0.663273 18.7646 1.67867L23.0073 5.92131ZM22.6859 5.99999H78.6859V-7.62939e-06H22.6859V5.99999ZM65.8859 68C72.4189 68 78.0011 65.9708 82.3683 61.7595L78.2035 57.4405C75.1041 60.4292 71.0863 62 65.8859 62V68ZM82.3683 61.7595C86.7529 57.5315 88.8859 52.0531 88.8859 45.6H82.8859C82.8859 50.6136 81.2856 54.4685 78.2035 57.4405L82.3683 61.7595ZM88.8859 45.6C88.8859 40.5604 87.1113 36.2944 83.4468 33.1295L79.5251 37.6705C81.7272 39.5723 82.8859 42.1063 82.8859 45.6H88.8859ZM83.5549 33.2276C80.0701 29.9087 75.4609 28.4 70.0859 28.4V34.4C74.311 34.4 77.3018 35.558 79.417 37.5724L83.5549 33.2276ZM70.0859 28.4H50.0859V34.4H70.0859V28.4ZM50.0859 28.4C49.1361 28.4 48.2187 28.7176 47.4654 29.3453C46.7653 29.9288 46.3522 30.6566 46.1005 31.2858L51.6714 33.5142C51.6863 33.4768 51.6066 33.7046 51.3065 33.9547C50.9532 34.249 50.5025 34.4 50.0859 34.4V28.4ZM45.9074 32.0418L42.1074 63.6418L48.0645 64.3582L51.8645 32.7582L45.9074 32.0418ZM42.3005 62.8858C42.0498 63.5125 41.5647 65.1508 42.7433 66.6241C43.7863 67.9278 45.3136 68 45.8859 68V62C45.8877 62 45.9223 61.9999 45.983 62.0075C46.0427 62.015 46.1468 62.0322 46.2808 62.0741C46.5438 62.1562 47.0223 62.3681 47.4285 62.8759C47.8578 63.4125 47.9859 64.0032 47.9859 64.4375C47.9859 64.8219 47.8897 65.0684 47.8714 65.1142L42.3005 62.8858ZM45.8859 68H65.8859V62H45.8859V68ZM189.902 141.2L187.032 142.074L187.043 142.111L187.056 142.149L189.902 141.2ZM173.702 88L176.571 87.1261L176.498 86.8844L176.385 86.6584L173.702 88ZM158.702 88.2L161.679 88.5637L161.702 88.3825V88.2H158.702ZM152.302 140.6L155.243 141.188L155.266 141.077L155.279 140.964L152.302 140.6ZM151.302 142.4L149.18 140.279L149.18 140.279L151.302 142.4ZM120.502 142.4L118.102 144.2L118.229 144.371L118.38 144.521L120.502 142.4ZM120.102 140.6L123.043 141.188L123.065 141.078L123.079 140.966L120.102 140.6ZM136.702 5.39999L139.679 5.76559L139.702 5.58348V5.39999H136.702ZM137.502 3.79999L139.302 6.19999L139.472 6.07207L139.623 5.92131L137.502 3.79999ZM224.702 13L226.802 10.8578L224.702 13ZM234.502 46.4L237.475 46.7994L237.483 46.7357L237.489 46.6716L234.502 46.4ZM225.102 69.6L222.731 67.7615L225.102 69.6ZM205.502 83.8L204.469 80.9834L204.428 80.9984L204.387 81.0146L205.502 83.8ZM204.902 85.2L207.74 84.2297L207.715 84.1571L207.687 84.0858L204.902 85.2ZM223.702 140.2L220.863 141.17L220.928 141.361L221.018 141.542L223.702 140.2ZM165.502 32.4L168.48 32.7566L168.502 32.5789V32.4H165.502ZM162.102 60.8L164.887 61.9142L165.033 61.5481L165.08 61.1566L162.102 60.8ZM197.302 57L195.267 54.7956L195.245 54.8155L195.224 54.8358L197.302 57ZM198.502 35L196.438 37.1779L196.497 37.2335L196.559 37.2858L198.502 35ZM192.502 140C192.391 140 192.357 139.987 192.378 139.993C192.405 140 192.474 140.025 192.559 140.083C192.645 140.143 192.707 140.21 192.742 140.261C192.775 140.307 192.769 140.315 192.748 140.251L187.056 142.149C187.419 143.238 188.077 144.278 189.144 145.017C190.197 145.746 191.387 146 192.502 146V140ZM192.771 140.326L176.571 87.1261L170.832 88.8739L187.032 142.074L192.771 140.326ZM176.385 86.6584C176.074 86.0358 175.593 85.3887 174.866 84.9038C174.12 84.4065 173.293 84.2 172.502 84.2V90.2C172.243 90.2 171.883 90.1268 171.537 89.8961C171.21 89.678 171.063 89.4309 171.018 89.3416L176.385 86.6584ZM172.502 84.2H159.702V90.2H172.502V84.2ZM159.702 84.2C158.906 84.2 157.758 84.401 156.83 85.3287C155.903 86.2564 155.702 87.4042 155.702 88.2H161.702C161.702 88.3291 161.667 88.977 161.073 89.5713C160.479 90.1657 159.831 90.2 159.702 90.2V84.2ZM155.724 87.8363L149.324 140.236L155.279 140.964L161.679 88.5637L155.724 87.8363ZM149.36 140.012C149.355 140.035 149.342 140.117 149.18 140.279L153.423 144.521C154.327 143.617 154.981 142.498 155.243 141.188L149.36 140.012ZM149.18 140.279C149.285 140.174 149.417 140.09 149.548 140.041C149.67 139.995 149.735 140 149.702 140V146C151.011 146 152.361 145.584 153.423 144.521L149.18 140.279ZM149.702 140H122.102V146H149.702V140ZM122.102 140C122.068 140 122.133 139.995 122.255 140.041C122.386 140.09 122.518 140.174 122.623 140.279L118.38 144.521C119.442 145.584 120.792 146 122.102 146V140ZM122.902 140.6C122.935 140.645 122.997 140.749 123.03 140.899C123.063 141.048 123.05 141.156 123.043 141.188L117.16 140.012C116.863 141.496 117.178 142.969 118.102 144.2L122.902 140.6ZM123.079 140.966L139.679 5.76559L133.724 5.0344L117.124 140.234L123.079 140.966ZM139.702 5.39999C139.702 5.47683 139.683 5.64473 139.585 5.84163C139.486 6.03854 139.363 6.15389 139.302 6.19999L135.702 1.4C134.413 2.36656 133.702 3.78906 133.702 5.39999H139.702ZM139.623 5.92131C139.667 5.87675 139.653 5.90471 139.57 5.94143C139.53 5.95918 139.483 5.97489 139.432 5.98564C139.381 5.99636 139.336 5.99999 139.302 5.99999V-7.62939e-06C137.732 -7.62939e-06 136.396 0.663273 135.38 1.67867L139.623 5.92131ZM139.302 5.99999H196.902V-7.62939e-06H139.302V5.99999ZM196.902 5.99999C208.042 5.99999 216.486 9.14704 222.601 15.1422L226.802 10.8578C219.317 3.51961 209.227 -7.62939e-06 196.902 -7.62939e-06V5.99999ZM222.601 15.1422C228.718 21.1388 231.902 29.3077 231.902 40H237.902C237.902 28.0257 234.285 18.1945 226.802 10.8578L222.601 15.1422ZM231.902 40C231.902 41.1871 231.78 43.2044 231.514 46.1284L237.489 46.6716C237.757 43.7289 237.902 41.4795 237.902 40H231.902ZM231.528 46.0006C230.392 54.4582 227.444 61.6836 222.731 67.7615L227.472 71.4385C232.892 64.4498 236.211 56.2084 237.475 46.7994L231.528 46.0006ZM222.731 67.7615C218.02 73.8355 211.957 78.2377 204.469 80.9834L206.534 86.6166C215.046 83.4956 222.049 78.4312 227.472 71.4385L222.731 67.7615ZM204.387 81.0146C203.625 81.3196 202.618 81.9457 202.094 83.1682C201.57 84.3908 201.811 85.5515 202.116 86.3142L207.687 84.0858C207.725 84.1819 207.933 84.7758 207.609 85.5318C207.285 86.2877 206.712 86.547 206.616 86.5854L204.387 81.0146ZM202.063 86.1703L220.863 141.17L226.54 139.23L207.74 84.2297L202.063 86.1703ZM221.018 141.542C220.885 141.274 220.902 141.114 220.902 141.2H226.902C226.902 140.486 226.785 139.659 226.385 138.858L221.018 141.542ZM220.902 141.2C220.902 141.17 220.907 141.002 221.01 140.769C221.121 140.519 221.299 140.302 221.502 140.15C221.594 140.08 221.676 140.037 221.733 140.011C221.789 139.986 221.823 139.977 221.824 139.977C221.825 139.977 221.8 139.983 221.744 139.989C221.689 139.995 221.609 140 221.502 140V146C222.59 146 223.953 145.811 225.102 144.95C226.412 143.967 226.902 142.532 226.902 141.2H220.902ZM221.502 140H192.502V146H221.502V140ZM166.702 28.4C165.959 28.4 164.843 28.5434 163.881 29.3453C162.814 30.2346 162.502 31.4459 162.502 32.4H168.502C168.502 32.6875 168.389 33.3988 167.722 33.9547C167.438 34.1917 167.16 34.3028 166.979 34.3531C166.89 34.378 166.819 34.3893 166.775 34.3946C166.73 34.3999 166.705 34.4 166.702 34.4V28.4ZM162.523 32.0434L159.123 60.4434L165.08 61.1566L168.48 32.7566L162.523 32.0434ZM159.316 59.6858C159.065 60.3125 158.58 61.9508 159.759 63.4241C160.802 64.7278 162.329 64.8 162.902 64.8V58.8C162.903 58.8 162.938 58.7999 162.999 58.8075C163.058 58.815 163.162 58.8322 163.296 58.8741C163.559 58.9562 164.038 59.1681 164.444 59.6759C164.873 60.2125 165.002 60.8032 165.002 61.2375C165.002 61.6219 164.905 61.8684 164.887 61.9142L159.316 59.6858ZM162.902 64.8H184.502V58.8H162.902V64.8ZM184.502 64.8C190.371 64.8 195.416 62.9692 199.379 59.1642L195.224 54.8358C192.521 57.4307 189.032 58.8 184.502 58.8V64.8ZM199.336 59.2044C203.485 55.375 205.502 50.3421 205.502 44.4H199.502C199.502 48.8579 198.052 52.225 195.267 54.7956L199.336 59.2044ZM205.502 44.4C205.502 39.6603 203.882 35.6359 200.445 32.7142L196.559 37.2858C198.455 38.8974 199.502 41.1397 199.502 44.4H205.502ZM200.565 32.8221C197.339 29.7661 193.06 28.4 188.102 28.4V34.4C191.943 34.4 194.598 35.4339 196.438 37.1779L200.565 32.8221ZM188.102 28.4H166.702V34.4H188.102V28.4ZM239.642 142.4L237.242 144.2L237.37 144.371L237.521 144.521L239.642 142.4ZM239.242 140.6L242.184 141.188L242.206 141.078L242.22 140.966L239.242 140.6ZM255.842 5.39999L258.82 5.76559L258.842 5.58348V5.39999H255.842ZM256.642 3.79999L258.442 6.19999L258.613 6.07207L258.764 5.92131L256.642 3.79999ZM288.042 5.39999L291.02 5.76559L291.042 5.58348V5.39999H288.042ZM271.442 140.6L274.384 141.188L274.406 141.078L274.42 140.966L271.442 140.6ZM270.442 142.4L268.321 140.279V140.279L270.442 142.4ZM241.242 140C241.208 140 241.273 139.995 241.396 140.041C241.527 140.09 241.659 140.174 241.764 140.279L237.521 144.521C238.583 145.584 239.933 146 241.242 146V140ZM242.042 140.6C242.076 140.645 242.137 140.749 242.171 140.899C242.204 141.048 242.19 141.156 242.184 141.188L236.3 140.012C236.004 141.496 236.319 142.969 237.242 144.2L242.042 140.6ZM242.22 140.966L258.82 5.76559L252.865 5.0344L236.265 140.234L242.22 140.966ZM258.842 5.39999C258.842 5.47683 258.824 5.64473 258.725 5.84163C258.627 6.03854 258.504 6.15389 258.442 6.19999L254.842 1.4C253.553 2.36656 252.842 3.78906 252.842 5.39999H258.842ZM258.764 5.92131C258.808 5.87675 258.793 5.90471 258.711 5.94143C258.671 5.95918 258.624 5.97489 258.573 5.98564C258.522 5.99636 258.477 5.99999 258.442 5.99999V-7.62939e-06C256.873 -7.62939e-06 255.536 0.663273 254.521 1.67867L258.764 5.92131ZM258.442 5.99999H285.842V-7.62939e-06H258.442V5.99999ZM285.842 5.99999C285.944 5.99999 285.904 6.01478 285.779 5.96937C285.638 5.91777 285.449 5.8103 285.281 5.62716C284.945 5.26113 285.042 5.00087 285.042 5.39999H291.042C291.042 4.19911 290.773 2.73885 289.704 1.57282C288.59 0.357368 287.108 -7.62939e-06 285.842 -7.62939e-06V5.99999ZM285.065 5.0344L268.465 140.234L274.42 140.966L291.02 5.76559L285.065 5.0344ZM268.5 140.012C268.496 140.035 268.483 140.117 268.321 140.279L272.564 144.521C273.468 143.617 274.122 142.498 274.384 141.188L268.5 140.012ZM268.321 140.279C268.426 140.174 268.557 140.09 268.689 140.041C268.811 139.995 268.876 140 268.842 140V146C270.152 146 271.501 145.584 272.564 144.521L268.321 140.279ZM268.842 140H241.242V146H268.842V140ZM394.409 4.59999L396.828 6.37505L396.979 6.16959L397.093 5.94164L394.409 4.59999ZM426.209 3.79999L423.809 5.59998L423.937 5.77055L424.088 5.92131L426.209 3.79999ZM426.609 5.39999L423.668 4.81165L423.646 4.92235L423.632 5.0344L426.609 5.39999ZM410.009 140.6L412.951 141.188L412.973 141.078L412.987 140.966L410.009 140.6ZM409.009 142.4L411.131 144.521V144.521L409.009 142.4ZM378.209 142.4L375.809 144.2L375.937 144.371L376.088 144.521L378.209 142.4ZM377.809 140.6L380.751 141.188L380.774 141.076L380.787 140.963L377.809 140.6ZM387.609 60.2L384.699 59.4724L384.654 59.6526L384.631 59.837L387.609 60.2ZM386.609 60L389.03 61.7718L389.069 61.7188L389.106 61.6641L386.609 60ZM366.409 87.6L363.988 85.8282L363.839 86.0322L363.726 86.2584L366.409 87.6ZM347.209 87.6L344.507 88.9026L344.516 88.9222L344.526 88.9416L347.209 87.6ZM333.809 59.8L330.963 60.7487L331.024 60.9302L331.107 61.1026L333.809 59.8ZM332.609 60L329.699 59.2724L329.654 59.453L329.631 59.6379L332.609 60ZM322.809 140.6L325.751 141.188L325.774 141.076L325.787 140.962L322.809 140.6ZM321.809 142.4L319.688 140.279V140.279L321.809 142.4ZM291.009 142.4L288.609 144.2L288.737 144.371L288.888 144.521L291.009 142.4ZM290.609 140.6L293.551 141.188L293.573 141.078L293.587 140.966L290.609 140.6ZM307.209 5.39999L310.187 5.76559L310.209 5.58348V5.39999H307.209ZM308.009 3.79999L309.809 6.19999L309.98 6.07207L310.131 5.92131L308.009 3.79999ZM339.609 4.59999L336.8 5.65336L336.854 5.79562L336.921 5.93176L339.609 4.59999ZM361.209 48.2L358.521 49.5318L358.526 49.5416L361.209 48.2ZM362.409 48.2L359.991 46.4249L359.84 46.6304L359.726 46.8583L362.409 48.2ZM397.093 5.94164C397.114 5.89989 397.118 5.9025 397.096 5.92717C397.085 5.9389 397.07 5.953 397.052 5.9676C397.034 5.98222 397.015 5.99472 396.998 6.00472C396.961 6.02592 396.946 6.02628 396.971 6.02024C397 6.01356 397.075 5.99999 397.209 5.99999V-7.62939e-06C396.145 -7.62939e-06 395.038 0.21423 394.021 0.795261C392.985 1.38749 392.228 2.25549 391.726 3.25835L397.093 5.94164ZM397.209 5.99999H424.609V-7.62939e-06H397.209V5.99999ZM424.609 5.99999C424.533 5.99999 424.365 5.98173 424.168 5.88327C423.971 5.78481 423.855 5.66145 423.809 5.59998L428.609 2.00001C427.643 0.711246 426.22 -7.62939e-06 424.609 -7.62939e-06V5.99999ZM424.088 5.92131C423.915 5.74854 423.768 5.50426 423.699 5.22761C423.635 4.97374 423.667 4.81319 423.668 4.81165L429.551 5.98834C429.836 4.56607 429.59 2.93794 428.331 1.67867L424.088 5.92131ZM423.632 5.0344L407.032 140.234L412.987 140.966L429.587 5.76559L423.632 5.0344ZM407.068 140.012C407.063 140.035 407.05 140.117 406.888 140.279L411.131 144.521C412.035 143.617 412.689 142.498 412.951 141.188L407.068 140.012ZM406.888 140.279C406.993 140.174 407.125 140.09 407.256 140.041C407.378 139.995 407.443 140 407.409 140V146C408.719 146 410.068 145.584 411.131 144.521L406.888 140.279ZM407.409 140H379.809V146H407.409V140ZM379.809 140C379.776 140 379.841 139.995 379.963 140.041C380.094 140.09 380.226 140.174 380.331 140.279L376.088 144.521C377.15 145.584 378.5 146 379.809 146V140ZM380.609 140.6C380.643 140.645 380.704 140.749 380.738 140.899C380.771 141.048 380.758 141.156 380.751 141.188L374.868 140.012C374.571 141.496 374.886 142.969 375.809 144.2L380.609 140.6ZM380.787 140.963L390.587 60.563L384.631 59.837L374.831 140.237L380.787 140.963ZM390.52 60.9276C390.609 60.5707 390.792 59.7603 390.57 58.8724C390.44 58.3531 390.132 57.6559 389.446 57.1074C388.751 56.5513 387.983 56.4 387.409 56.4V62.4C386.969 62.4 386.31 62.282 385.698 61.7926C385.095 61.3108 384.845 60.7136 384.749 60.3276C384.594 59.7063 384.743 59.296 384.699 59.4724L390.52 60.9276ZM387.409 56.4C385.55 56.4 384.501 57.7547 384.113 58.3359L389.106 61.6641C389.126 61.6329 389.04 61.7773 388.809 61.95C388.555 62.1406 388.073 62.4 387.409 62.4V56.4ZM384.189 58.2282L363.988 85.8282L368.83 89.3718L389.03 61.7718L384.189 58.2282ZM363.726 86.2584C363.705 86.3001 363.7 86.2975 363.723 86.2728C363.734 86.2611 363.748 86.247 363.767 86.2324C363.785 86.2178 363.803 86.2053 363.821 86.1953C363.858 86.1741 363.873 86.1737 363.847 86.1797C363.819 86.1864 363.744 86.2 363.609 86.2V92.2C364.674 92.2 365.781 91.9858 366.798 91.4047C367.834 90.8125 368.591 89.9445 369.093 88.9416L363.726 86.2584ZM363.609 86.2H349.809V92.2H363.609V86.2ZM349.809 86.2C349.731 86.2 349.707 86.1914 349.721 86.1952C349.729 86.197 349.744 86.2015 349.764 86.2101C349.785 86.2188 349.808 86.2304 349.832 86.245C349.855 86.2597 349.877 86.2753 349.894 86.2904C349.912 86.3054 349.924 86.3176 349.93 86.3245C349.942 86.3385 349.925 86.3238 349.893 86.2584L344.526 88.9416C344.999 89.8878 345.701 90.748 346.687 91.355C347.672 91.9612 348.755 92.2 349.809 92.2V86.2ZM349.912 86.2974L336.512 58.4974L331.107 61.1026L344.507 88.9026L349.912 86.2974ZM336.655 58.8513C336.391 58.0594 335.469 56.2 333.209 56.2V62.2C332.495 62.2 331.863 61.896 331.438 61.4713C331.087 61.1203 330.978 60.7915 330.963 60.7487L336.655 58.8513ZM333.209 56.2C331.897 56.2 330.969 56.9207 330.459 57.6C330.013 58.1948 329.808 58.8375 329.699 59.2724L335.52 60.7276C335.544 60.6292 335.505 60.8718 335.259 61.2C335.121 61.3846 334.882 61.6423 334.51 61.8547C334.119 62.0783 333.669 62.2 333.209 62.2V56.2ZM329.631 59.6379L319.831 140.238L325.787 140.962L335.587 60.3621L329.631 59.6379ZM319.868 140.012C319.863 140.035 319.85 140.117 319.688 140.279L323.931 144.521C324.835 143.617 325.489 142.498 325.751 141.188L319.868 140.012ZM319.688 140.279C319.793 140.174 319.925 140.09 320.056 140.041C320.178 139.995 320.243 140 320.209 140V146C321.519 146 322.868 145.584 323.931 144.521L319.688 140.279ZM320.209 140H292.609V146H320.209V140ZM292.609 140C292.576 140 292.641 139.995 292.763 140.041C292.894 140.09 293.026 140.174 293.131 140.279L288.888 144.521C289.95 145.584 291.3 146 292.609 146V140ZM293.409 140.6C293.443 140.645 293.504 140.749 293.538 140.899C293.571 141.048 293.558 141.156 293.551 141.188L287.668 140.012C287.371 141.496 287.686 142.969 288.609 144.2L293.409 140.6ZM293.587 140.966L310.187 5.76559L304.232 5.0344L287.632 140.234L293.587 140.966ZM310.209 5.39999C310.209 5.47683 310.191 5.64473 310.093 5.84163C309.994 6.03854 309.871 6.15389 309.809 6.19999L306.209 1.4C304.921 2.36656 304.209 3.78906 304.209 5.39999H310.209ZM310.131 5.92131C310.175 5.87675 310.16 5.90471 310.078 5.94143C310.038 5.95918 309.991 5.97489 309.94 5.98564C309.889 5.99636 309.844 5.99999 309.809 5.99999V-7.62939e-06C308.24 -7.62939e-06 306.903 0.663273 305.888 1.67867L310.131 5.92131ZM309.809 5.99999H337.009V-7.62939e-06H309.809V5.99999ZM337.009 5.99999C337.289 5.99999 337.252 6.05647 337.087 5.95496C337.005 5.90415 336.928 5.83607 336.87 5.7621C336.814 5.69125 336.797 5.64476 336.8 5.65336L342.418 3.54663C342.014 2.46792 341.3 1.50256 340.232 0.84502C339.2 0.210182 338.063 -7.62939e-06 337.009 -7.62939e-06V5.99999ZM336.921 5.93176L358.521 49.5318L363.898 46.8682L342.298 3.26823L336.921 5.93176ZM358.526 49.5416C358.697 49.8828 358.967 50.3505 359.388 50.7713C359.815 51.1983 360.633 51.8 361.809 51.8C362.986 51.8 363.804 51.1983 364.231 50.7713C364.652 50.3505 364.922 49.8828 365.093 49.5416L359.726 46.8583C359.697 46.9172 359.767 46.7495 359.988 46.5287C360.215 46.3017 360.833 45.8 361.809 45.8C362.786 45.8 363.404 46.3017 363.631 46.5287C363.852 46.7495 363.922 46.9172 363.893 46.8584L358.526 49.5416ZM364.828 49.975L396.828 6.37505L391.991 2.82494L359.991 46.4249L364.828 49.975ZM539.281 29L542.223 29.5883L542.244 29.4839L542.257 29.3783L539.281 29ZM538.281 30.8L536.16 28.6787L536.16 28.6787L538.281 30.8ZM474.681 32.4L477.659 32.7632L477.681 32.5822V32.4H474.681ZM471.681 57L468.703 56.6368L468.681 56.8177V57H471.681ZM513.081 58.8L510.681 60.6L510.809 60.7706L510.96 60.9213L513.081 58.8ZM513.481 60.4L510.539 59.8117L510.516 59.9269L510.503 60.0436L513.481 60.4ZM510.681 83.8L513.623 84.3883L513.646 84.2731L513.66 84.1564L510.681 83.8ZM509.681 85.6L507.56 83.4787L509.681 85.6ZM467.881 87.2L465.096 86.0858L464.95 86.4498L464.903 86.839L467.881 87.2ZM464.681 113.6L461.703 113.239L461.681 113.419V113.6H464.681ZM528.081 115.4L525.681 117.2L525.809 117.371L525.96 117.521L528.081 115.4ZM528.481 117L525.539 116.412L525.516 116.528L525.502 116.647L528.481 117ZM525.681 140.6L528.623 141.188L528.646 141.072L528.66 140.953L525.681 140.6ZM524.681 142.4L526.803 144.521V144.521L524.681 142.4ZM429.681 142.4L427.281 144.2L427.409 144.371L427.56 144.521L429.681 142.4ZM429.281 140.6L432.223 141.188L432.245 141.078L432.259 140.966L429.281 140.6ZM445.881 5.39999L448.859 5.76559L448.881 5.58348V5.39999H445.881ZM446.681 3.79999L448.481 6.19999L448.652 6.07207L448.803 5.92131L446.681 3.79999ZM541.881 3.79999L539.481 5.6L539.609 5.77055L539.76 5.92129L541.881 3.79999ZM542.281 5.39999L539.34 4.81165L539.319 4.91606L539.305 5.02168L542.281 5.39999ZM536.34 28.4117C536.335 28.4349 536.322 28.5165 536.16 28.6787L540.403 32.9213C541.307 32.0168 541.961 30.8985 542.223 29.5883L536.34 28.4117ZM536.16 28.6787C536.265 28.5737 536.396 28.4903 536.528 28.441C536.65 28.3952 536.715 28.4 536.681 28.4V34.4C537.991 34.4 539.34 33.9835 540.403 32.9213L536.16 28.6787ZM536.681 28.4H475.881V34.4H536.681V28.4ZM475.881 28.4C475.139 28.4 474.023 28.5434 473.061 29.3453C471.994 30.2346 471.681 31.4459 471.681 32.4H477.681C477.681 32.6875 477.569 33.3988 476.902 33.9547C476.617 34.1917 476.34 34.3028 476.159 34.3531C476.07 34.378 475.999 34.3893 475.955 34.3946C475.91 34.3999 475.884 34.4 475.881 34.4V28.4ZM471.703 32.0368L468.703 56.6368L474.659 57.3632L477.659 32.7632L471.703 32.0368ZM468.681 57C468.681 57.6539 468.799 58.6994 469.539 59.6241C470.381 60.6766 471.552 61 472.481 61V55C472.877 55 473.648 55.1567 474.224 55.8759C474.466 56.1784 474.578 56.4713 474.63 56.6645C474.68 56.852 474.681 56.9765 474.681 57H468.681ZM472.481 61H511.481V55H472.481V61ZM511.481 61C511.404 61 511.237 60.9817 511.04 60.8833C510.843 60.7848 510.727 60.6615 510.681 60.6L515.481 57C514.515 55.7112 513.092 55 511.481 55V61ZM510.96 60.9213C510.787 60.7485 510.64 60.5042 510.571 60.2276C510.507 59.9737 510.539 59.8132 510.539 59.8117L516.423 60.9883C516.707 59.5661 516.462 57.938 515.203 56.6787L510.96 60.9213ZM510.503 60.0436L507.703 83.4436L513.66 84.1564L516.46 60.7564L510.503 60.0436ZM507.74 83.2117C507.735 83.2349 507.722 83.3165 507.56 83.4787L511.803 87.7213C512.707 86.8168 513.361 85.6985 513.623 84.3883L507.74 83.2117ZM507.56 83.4787C507.665 83.3737 507.796 83.2903 507.928 83.241C508.05 83.1952 508.115 83.2 508.081 83.2V89.2C509.391 89.2 510.74 88.7835 511.803 87.7213L507.56 83.4787ZM508.081 83.2H469.081V89.2H508.081V83.2ZM469.081 83.2C468.131 83.2 467.214 83.5176 466.461 84.1453C465.761 84.7288 465.348 85.4566 465.096 86.0858L470.667 88.3142C470.682 88.2768 470.602 88.5046 470.302 88.7547C469.949 89.049 469.498 89.2 469.081 89.2V83.2ZM464.903 86.839L461.703 113.239L467.659 113.961L470.859 87.561L464.903 86.839ZM461.681 113.6C461.681 114.254 461.799 115.299 462.539 116.224C463.381 117.277 464.552 117.6 465.481 117.6V111.6C465.877 111.6 466.648 111.757 467.224 112.476C467.466 112.778 467.578 113.071 467.63 113.265C467.68 113.452 467.681 113.576 467.681 113.6H461.681ZM465.481 117.6H526.481V111.6H465.481V117.6ZM526.481 117.6C526.404 117.6 526.237 117.582 526.04 117.483C525.843 117.385 525.727 117.261 525.681 117.2L530.481 113.6C529.515 112.311 528.092 111.6 526.481 111.6V117.6ZM525.96 117.521C525.787 117.349 525.64 117.104 525.571 116.828C525.507 116.574 525.539 116.413 525.539 116.412L531.423 117.588C531.707 116.166 531.462 114.538 530.203 113.279L525.96 117.521ZM525.502 116.647L522.702 140.247L528.66 140.953L531.46 117.353L525.502 116.647ZM522.74 140.012C522.735 140.035 522.722 140.117 522.56 140.279L526.803 144.521C527.707 143.617 528.361 142.498 528.623 141.188L522.74 140.012ZM522.56 140.279C522.665 140.174 522.796 140.09 522.928 140.041C523.05 139.995 523.115 140 523.081 140V146C524.391 146 525.74 145.584 526.803 144.521L522.56 140.279ZM523.081 140H431.281V146H523.081V140ZM431.281 140C431.247 140 431.312 139.995 431.435 140.041C431.566 140.09 431.698 140.174 431.803 140.279L427.56 144.521C428.622 145.584 429.972 146 431.281 146V140ZM432.081 140.6C432.115 140.645 432.176 140.749 432.21 140.899C432.243 141.048 432.229 141.156 432.223 141.188L426.34 140.012C426.043 141.496 426.358 142.969 427.281 144.2L432.081 140.6ZM432.259 140.966L448.859 5.76559L442.904 5.0344L426.304 140.234L432.259 140.966ZM448.881 5.39999C448.881 5.47683 448.863 5.64473 448.765 5.84163C448.666 6.03854 448.543 6.15389 448.481 6.19999L444.881 1.4C443.592 2.36656 442.881 3.78906 442.881 5.39999H448.881ZM448.803 5.92131C448.847 5.87675 448.832 5.90471 448.75 5.94143C448.71 5.95918 448.663 5.97489 448.612 5.98564C448.561 5.99636 448.516 5.99999 448.481 5.99999V-7.62939e-06C446.912 -7.62939e-06 445.575 0.663273 444.56 1.67867L448.803 5.92131ZM448.481 5.99999H540.281V-7.62939e-06H448.481V5.99999ZM540.281 5.99999C540.204 5.99999 540.036 5.98173 539.84 5.88327C539.643 5.78482 539.527 5.66146 539.481 5.6L544.281 1.99998C543.315 0.711243 541.892 -7.62939e-06 540.281 -7.62939e-06V5.99999ZM539.76 5.92129C539.587 5.74851 539.44 5.50423 539.371 5.22759C539.307 4.97373 539.339 4.81318 539.34 4.81165L545.223 5.98834C545.507 4.56609 545.262 2.93797 544.003 1.67869L539.76 5.92129ZM539.305 5.02168L536.305 28.6217L542.257 29.3783L545.257 5.77831L539.305 5.02168Z" fill="black"/>
</svg>
